<?xml version="1.0" encoding="UTF-8"?>
<svg version="1.1" xmlns="http://www.w3.org/2000/svg" width="1024" height="1024">
<path d="M0 0 C337.92 0 675.84 0 1024 0 C1024 337.92 1024 675.84 1024 1024 C686.08 1024 348.16 1024 0 1024 C0 686.08 0 348.16 0 0 Z " fill="#FAF9FA" transform="translate(0,0)"/>
<path d="M0 0 C3.33546095 1.30867628 6.2416428 3.06686713 9.25 5 C10.92423868 6.02252928 12.59871927 7.04466257 14.2734375 8.06640625 C15.08264648 8.57059082 15.89185547 9.07477539 16.72558594 9.59423828 C19.73470493 11.4541038 22.79427836 13.19862012 25.875 14.9375 C26.97199219 15.56398437 28.06898438 16.19046875 29.19921875 16.8359375 C32.17791358 18.53409476 35.16107412 20.22428802 38.14453125 21.9140625 C55.38971054 31.70095785 55.38971054 31.70095785 62.55078125 36.5 C65.17681993 38.10829163 67.89847824 39.43723031 70.65991211 40.79492188 C75.42489871 43.24875326 80.00909481 46.02926357 84.625 48.75 C86.76795336 50.00698075 88.91118105 51.26349392 91.0546875 52.51953125 C92.08045898 53.12104004 93.10623047 53.72254883 94.16308594 54.34228516 C97.67921496 56.39689067 101.20954013 58.42518514 104.75 60.4375 C114.81791048 66.16600584 124.80046853 72.02726788 134.6875 78.0625 C135.26822266 78.41376953 135.84894531 78.76503906 136.44726562 79.12695312 C142.72653913 82.96710999 142.72653913 82.96710999 143.60351562 86.27954102 C144.31401044 91.15456796 144.3938859 96.0179325 144.5 100.9375 C144.55414062 102.00935547 144.60828125 103.08121094 144.6640625 104.18554688 C144.79527855 111.75390098 144.79527855 111.75390098 142.80615234 114.87060547 C140.97514364 116.55099983 139.1519731 117.75450232 137 119 C136.15791992 119.49685303 135.31583984 119.99370605 134.44824219 120.50561523 C131.53699493 122.149893 128.59072585 123.70630347 125.625 125.25 C123.47655775 126.38946648 121.32942843 127.53141178 119.18359375 128.67578125 C118.13284668 129.23604004 117.08209961 129.79629883 115.99951172 130.37353516 C111.83628246 132.63101793 107.75366979 135.01054445 103.6875 137.4375 C98.45958023 140.55368541 93.20549005 143.57428848 87.84375 146.45703125 C84.35358061 148.3507358 80.89545196 150.29825453 77.4375 152.25 C70.06008707 156.41123038 62.66058948 160.53175833 55.25390625 164.640625 C54.56570801 165.02412109 53.87750977 165.40761719 53.16845703 165.80273438 C51.61812602 166.65871538 50.06099059 167.50241863 48.49951172 168.33789062 C47.68369629 168.77810547 46.86788086 169.21832031 46.02734375 169.671875 C45.280896 170.06987305 44.53444824 170.46787109 43.76538086 170.87792969 C41.84139 171.8880834 41.84139 171.8880834 41 174 C41.81339844 174.22300781 42.62679687 174.44601562 43.46484375 174.67578125 C48.67091624 176.62590122 53.14575717 179.63582932 57.81054688 182.63085938 C58.89625977 183.29891602 58.89625977 183.29891602 60.00390625 183.98046875 C60.65174072 184.39192139 61.2995752 184.80337402 61.96704102 185.22729492 C64.74768166 186.28418547 66.17199949 185.88465522 69 185 C71.01766597 184.03133255 72.99982209 182.98718872 74.953125 181.89453125 C75.52219574 181.57863541 76.09126648 181.26273956 76.67758179 180.93727112 C78.53870179 179.90207286 80.39430506 178.85738693 82.25 177.8125 C83.54572942 177.08941167 84.84179488 176.36692519 86.13818359 175.64501953 C89.45307683 173.79694081 92.76344568 171.94092336 96.0723877 170.08221436 C99.07500533 168.39646256 102.08060128 166.71605667 105.0859375 165.03515625 C108.26346743 163.25747336 111.4403838 161.47878253 114.61425781 159.69458008 C116.48609434 158.64259007 118.35933152 157.59308744 120.23413086 156.54638672 C122.15573573 155.47202488 124.07292048 154.38973427 125.98657227 153.30126953 C126.95393311 152.75841309 127.92129395 152.21555664 128.91796875 151.65625 C129.78188232 151.16705078 130.6457959 150.67785156 131.53588867 150.17382812 C135.08192664 148.48460287 138.0978498 148.14725095 142 148 C144.44814365 151.76858704 144.33941938 155.59708091 144.37109375 159.94140625 C144.38012222 160.70549301 144.3891507 161.46957977 144.39845276 162.25682068 C144.41292814 163.86803278 144.42183525 165.4793033 144.42553711 167.09057617 C144.43747883 169.55812569 144.48672179 172.02320902 144.53710938 174.49023438 C144.54656912 176.05727948 144.5538063 177.62433991 144.55859375 179.19140625 C144.57812607 179.92895645 144.59765839 180.66650665 144.61778259 181.42640686 C144.59936523 183.51000977 144.59936523 183.51000977 144 187 C141.67651367 188.85986328 141.67651367 188.85986328 139 190 C137.88367188 190.67675781 136.76734375 191.35351562 135.6171875 192.05078125 C126.09575674 197.81422072 116.43549235 203.20006342 106.57885742 208.37036133 C98.50124402 212.60832511 90.45104011 216.89186651 82.4375 221.25 C81.54635498 221.73291504 80.65520996 222.21583008 79.73706055 222.71337891 C74.51515597 225.56239936 69.38310808 228.52649267 64.30273438 231.62109375 C58.62397515 235.02160606 52.75668049 238.0897962 46.88671875 241.14453125 C36.83762862 246.38109156 26.92097836 251.80353272 17.09277344 257.44555664 C14.40515451 258.98219013 11.70381292 260.4920947 9 262 C7.73567139 262.7412915 7.73567139 262.7412915 6.44580078 263.49755859 C0.61280822 266.73305554 -4.33318892 268.36304456 -11 267 C-14.6002809 265.54954241 -17.78526028 263.62979162 -21.0625 261.5625 C-22.9179291 260.44698401 -24.77471728 259.33372565 -26.6328125 258.22265625 C-27.54321289 257.67109863 -28.45361328 257.11954102 -29.39160156 256.55126953 C-33.00717914 254.40100934 -36.70357241 252.43510775 -40.4375 250.5 C-53.69763301 243.56676311 -66.80703704 236.35054529 -79.875 229.0625 C-88.84009947 224.06279132 -97.86873189 219.18255543 -106.8984375 214.30078125 C-115.4066324 209.7006244 -123.90097358 205.07548937 -132.38378906 200.42871094 C-135.01999856 198.9890788 -137.66198317 197.56048036 -140.3046875 196.1328125 C-141.95329448 195.23468604 -143.60174003 194.33626315 -145.25 193.4375 C-146.00716309 193.03184814 -146.76432617 192.62619629 -147.54443359 192.20825195 C-150.87661799 190.3807122 -152.85742729 189.21385907 -155 186 C-155.19598462 183.19390695 -155.28004847 180.48947803 -155.265625 177.68359375 C-155.26753845 176.87132828 -155.2694519 176.05906281 -155.27142334 175.22218323 C-155.27278347 173.50659881 -155.26909904 171.79100405 -155.26074219 170.07543945 C-155.25002622 167.44393931 -155.2606502 164.81311971 -155.2734375 162.18164062 C-155.27211615 160.51562349 -155.26955425 158.84960678 -155.265625 157.18359375 C-155.26967346 156.39399765 -155.27372192 155.60440155 -155.27789307 154.7908783 C-155.22992975 149.22992975 -155.22992975 149.22992975 -153 147 C-146.84759882 147.04821631 -141.98660034 150.63283496 -136.875 153.6875 C-134.98709456 154.7927893 -133.09778069 155.89567659 -131.20703125 156.99609375 C-130.3042041 157.52187012 -129.40137695 158.04764648 -128.47119141 158.58935547 C-125.54594767 160.25918932 -122.59192699 161.77832978 -119.5625 163.25 C-114.9631866 165.48542048 -110.52978335 167.92824567 -106.10351562 170.48852539 C-100.12187042 173.94577012 -94.09389986 177.31794386 -88.0625 180.6875 C-79.90374314 185.24829198 -71.75681564 189.82885466 -63.625 194.4375 C-57.46928608 197.92448673 -51.30464143 201.39461685 -45.12109375 204.83203125 C-44.53857849 205.15586288 -43.95606323 205.47969452 -43.355896 205.81333923 C-40.4394325 207.43338692 -37.5205683 209.04885321 -34.59912109 210.65991211 C-29.68650998 213.37244713 -24.79186562 216.09536914 -19.98046875 218.984375 C-19.25142334 219.4165332 -18.52237793 219.84869141 -17.77124023 220.29394531 C-16.48111885 221.06374839 -15.19955599 221.84820844 -13.92993164 222.65136719 C-11.06956669 224.34658132 -9.0847569 224.99867726 -5.74609375 225.05078125 C-0.5487425 223.59292151 3.94883243 221.2401063 8.6875 218.6875 C9.62400391 218.20087891 10.56050781 217.71425781 11.52539062 217.21289062 C15.98678241 214.84685629 19.52788226 212.72385747 23 209 C22.01 208.6596875 22.01 208.6596875 21 208.3125 C15.87172776 206.06888089 11.14144358 203.71216537 8 199 C7.72584534 197.00247192 7.72584534 197.00247192 7.69360352 194.69970703 C7.67761612 193.835159 7.66162872 192.97061096 7.64515686 192.0798645 C7.63979416 191.14858734 7.63443146 190.21731018 7.62890625 189.2578125 C7.61987778 188.29728973 7.6108493 187.33676697 7.60154724 186.34713745 C7.58703712 184.31462728 7.57815612 182.28207032 7.57446289 180.24951172 C7.56257046 177.14340284 7.51339565 174.03928302 7.46289062 170.93359375 C7.45342591 168.95834303 7.44619111 166.9830801 7.44140625 165.0078125 C7.42187393 164.0805838 7.40234161 163.1533551 7.38221741 162.19802856 C7.41284693 157.80925194 7.49228114 155.6787579 10.18139648 152.08374023 C12.94021789 150.04419578 15.63941702 148.2856275 18.65625 146.65234375 C19.75074463 146.05317139 20.84523926 145.45399902 21.97290039 144.83666992 C23.14859371 144.20360112 24.32429373 143.57054476 25.5 142.9375 C27.33233998 141.93815667 29.16291572 140.93563237 30.99342346 139.93293762 C32.22518089 139.25845202 33.45747199 138.5849401 34.69029236 137.91239929 C40.18982639 134.90959752 45.63276147 131.81422727 51.0625 128.6875 C57.34890202 125.07627684 63.65531922 121.50782241 70 118 C72.19438733 116.7820554 74.38814367 115.56298474 76.58154297 114.34326172 C78.32165699 113.37676592 80.06301985 112.41251732 81.80517578 111.44970703 C84.72955198 109.82989607 87.64654462 108.19741193 90.5625 106.5625 C91.48611328 106.05396484 92.40972656 105.54542969 93.36132812 105.02148438 C94.21275391 104.54130859 95.06417969 104.06113281 95.94140625 103.56640625 C96.70138916 103.14302979 97.46137207 102.71965332 98.24438477 102.28344727 C100.31085704 101.03280929 100.31085704 101.03280929 101 98 C99.95585938 97.42894531 98.91171875 96.85789062 97.8359375 96.26953125 C88.07583312 90.90310446 78.43620887 85.36334643 68.87841797 79.64379883 C63.57962683 76.48276184 58.22920755 73.45352468 52.80200195 70.51855469 C47.94854037 67.88820433 43.13083796 65.19400825 38.3125 62.5 C37.24612305 61.90413086 36.17974609 61.30826172 35.08105469 60.69433594 C26.22130678 55.72486771 17.44109743 50.62588144 8.7043457 45.44335938 C7.76550537 44.88970703 6.82666504 44.33605469 5.859375 43.765625 C5.03920898 43.27868164 4.21904297 42.79173828 3.37402344 42.29003906 C-1.30078075 39.65971797 -1.30078075 39.65971797 -6.51855469 39.22680664 C-9.12312558 40.03836469 -11.31434331 41.05472152 -13.703125 42.37109375 C-14.59225586 42.85787598 -15.48138672 43.3446582 -16.39746094 43.84619141 C-17.33879883 44.37132324 -18.28013672 44.89645508 -19.25 45.4375 C-20.23000977 45.97810059 -21.21001953 46.51870117 -22.21972656 47.07568359 C-28.8161675 50.73261642 -35.34085512 54.49967985 -41.82104492 58.3581543 C-46.68551123 61.24946751 -51.60394983 64.02359637 -56.5625 66.75 C-64.7383334 71.25151346 -72.79935121 75.93774341 -80.85180664 80.65576172 C-90.85717515 86.51463835 -100.92049443 92.26982653 -111 98 C-109.64648571 101.27035077 -108.52320327 102.60653275 -105.3515625 104.15625 C-104.60326172 104.53297852 -103.85496094 104.90970703 -103.08398438 105.29785156 C-102.27251953 105.69456055 -101.46105469 106.09126953 -100.625 106.5 C-93.40663286 110.15350202 -86.40907982 114.04045535 -79.5 118.25 C-72.75159222 122.35030649 -65.96715781 126.28116642 -59 130 C-49.07660518 135.37726525 -39.18891719 140.81573551 -29.4375 146.5 C-28.72964355 146.90895508 -28.02178711 147.31791016 -27.29248047 147.73925781 C-20.7388342 151.59434385 -20.7388342 151.59434385 -19 154 C-18.62768555 157.24633789 -18.62768555 157.24633789 -18.63671875 161.22265625 C-18.63597099 162.27458412 -18.63597099 162.27458412 -18.63520813 163.34776306 C-18.6375458 164.82798094 -18.64725637 166.30820301 -18.66381836 167.78833008 C-18.68745121 170.05781435 -18.68437272 172.32612676 -18.67773438 174.59570312 C-18.72086566 185.72086566 -18.72086566 185.72086566 -21 188 C-24.98243105 187.65383092 -27.93232687 186.13365834 -31.375 184.18359375 C-32.4278418 183.59239746 -33.48068359 183.00120117 -34.56542969 182.39208984 C-35.69883789 181.7470752 -36.83224609 181.10206055 -38 180.4375 C-39.19910614 179.7617545 -40.39865947 179.086802 -41.59863281 178.41259766 C-43.47845301 177.3563266 -45.35798035 176.29956898 -47.23614502 175.24035645 C-53.43991532 171.74279403 -59.67832383 168.30950407 -65.92022705 164.88061523 C-76.11489435 159.27778197 -86.27091091 153.61059958 -96.38842773 147.86938477 C-103.26034417 143.97327238 -110.15461435 140.11843995 -117.06143188 136.28460693 C-118.79287836 135.32339297 -120.52376184 134.36116513 -122.25463867 133.39892578 C-127.34934996 130.56914713 -132.44881307 127.74978925 -137.5703125 124.96875 C-138.40199951 124.51459717 -139.23368652 124.06044434 -140.09057617 123.5925293 C-141.59795658 122.77039308 -143.10830937 121.95367058 -144.62231445 121.14379883 C-149.44844472 118.50466542 -153.21626453 116.3512064 -155 111 C-155.25609828 107.40026706 -155.23134254 103.79538655 -155.25 100.1875 C-155.270625 99.20201172 -155.29125 98.21652344 -155.3125 97.20117188 C-155.36516383 87.39911684 -155.36516383 87.39911684 -152 83 C-149.16899403 80.69997771 -146.13903558 78.8496957 -143 77 C-142.08202637 76.45472656 -141.16405273 75.90945313 -140.21826172 75.34765625 C-137.13701691 73.54280291 -134.03976664 71.76845988 -130.9375 70 C-128.6129802 68.66718751 -126.28876911 67.33384757 -123.96484375 66 C-123.37947845 65.66444092 -122.79411316 65.32888184 -122.19100952 64.9831543 C-116.44265452 61.68614696 -110.71983777 58.3461504 -105 55 C-95.59122533 49.50060888 -86.15777983 44.04519435 -76.71313477 38.60766602 C-70.43020474 34.98774939 -64.16199098 31.34417414 -57.90625 27.67749023 C-47.46450156 21.55756087 -36.95928428 15.56783787 -26.37084961 9.70483398 C-25.39253174 9.16157471 -24.41421387 8.61831543 -23.40625 8.05859375 C-22.47296875 7.54409668 -21.5396875 7.02959961 -20.578125 6.49951172 C-18.24531211 5.14268058 -16.10176139 3.66140924 -13.90625 2.09765625 C-9.39113753 -0.73095619 -5.18314667 -0.99567806 0 0 Z " fill="#2170E7" transform="translate(517,189)"/>
<path d="M0 0 C4.08751689 0.34727367 7.20255424 1.98271609 10.76953125 3.921875 C11.89343262 4.52862061 13.01733398 5.13536621 14.17529297 5.76049805 C15.38776643 6.42353533 16.60016698 7.08670596 17.8125 7.75 C19.07145506 8.43264224 20.33073688 9.11468216 21.59033203 9.79614258 C24.15966419 11.18752664 26.72694708 12.58258116 29.29248047 13.98095703 C32.66087933 15.81665221 36.03453157 17.64246295 39.41015625 19.46484375 C49.81383078 25.08341792 60.19555545 30.74182303 70.57177734 36.41088867 C77.70000235 40.30103755 84.84754131 44.15462037 92 48 C99.25368204 51.90076676 106.50491224 55.80567302 113.73754883 59.74536133 C115.55888133 60.73739599 117.38160708 61.7268776 119.20581055 62.71362305 C123.53815367 65.06601391 127.82223689 67.46909076 132.05078125 70.00390625 C132.85515625 70.47731445 133.65953125 70.95072266 134.48828125 71.43847656 C135.98047672 72.32062742 137.4621666 73.22093892 138.9296875 74.14355469 C143.16301459 76.62523054 146.45360298 77.70203982 151.34545898 76.84838867 C157.64211265 74.83598441 163.36244097 71.43470298 169.125 68.25 C170.56001976 67.47120846 171.99565556 66.69355104 173.43188477 65.91699219 C182.58146126 60.95276776 191.65150899 55.84781825 200.68579102 50.67700195 C208.59464259 46.1698221 216.64684016 41.96977526 224.73828125 37.80151367 C232.41797596 33.84062765 240.02232016 29.7601189 247.59716797 25.6027832 C256.00882202 20.98618631 264.45540938 16.43599433 272.90795898 11.89477539 C274.44432007 11.06901001 274.44432007 11.06901001 276.01171875 10.2265625 C277.00606934 9.69579102 278.00041992 9.16501953 279.02490234 8.61816406 C281.05657603 7.51313097 283.07216438 6.37813444 285.07275391 5.21777344 C286.04519043 4.65864258 287.01762695 4.09951172 288.01953125 3.5234375 C288.88296143 3.01474121 289.7463916 2.50604492 290.63598633 1.98193359 C293.36929166 0.84660838 294.25707054 1.168686 297 2 C297.12374395 8.03223203 297.21440813 14.06372285 297.2746582 20.09692383 C297.29977806 22.14848706 297.33388036 24.19996101 297.37719727 26.2512207 C297.43796002 29.20286091 297.46623492 32.1533165 297.48828125 35.10546875 C297.51408768 36.02023483 297.5398941 36.93500092 297.56648254 37.87748718 C297.56841799 42.2875511 297.50404713 44.33349276 294.77758789 47.9387207 C292.25586206 49.81012188 289.85000843 51.42088938 287.0703125 52.875 C286.12212646 53.37845947 285.17394043 53.88191895 284.19702148 54.40063477 C283.18325439 54.92842529 282.1694873 55.45621582 281.125 56 C278.95078602 57.15299476 276.77763413 58.30799419 274.60546875 59.46484375 C272.9510376 60.34438721 272.9510376 60.34438721 271.26318359 61.24169922 C266.27267988 63.93073167 261.35662829 66.74567954 256.4375 69.5625 C247.72353302 74.53430935 238.89496779 79.23685272 229.98095703 83.83886719 C223.91545243 86.9771653 217.98532657 90.25792977 212.08203125 93.69140625 C205.09378079 97.69391886 197.9434517 101.41291895 190.83862305 105.20336914 C182.1730592 109.82769485 173.53701551 114.50288648 164.92773438 119.23144531 C163.3123469 120.11695881 161.69377063 120.99669326 160.07128906 121.86914062 C158.34361572 122.81239651 156.64767515 123.81348076 154.9609375 124.828125 C149.96903043 126.80381381 145.60755346 127.06350368 140.57568359 125.01123047 C137.87981557 123.58041549 135.2868228 122.03699506 132.6875 120.4375 C130.65296806 119.23631448 128.61641654 118.03854475 126.578125 116.84375 C125.51013672 116.21339844 124.44214844 115.58304688 123.34179688 114.93359375 C117.61914906 111.62241822 111.77715255 108.53543802 105.9375 105.4375 C103.55015471 104.16653891 101.16371213 102.89388794 98.77734375 101.62109375 C97.62862793 101.00862793 96.47991211 100.39616211 95.29638672 99.76513672 C89.63239381 96.73220318 83.99929997 93.64330739 78.36474609 90.55615234 C72.15261048 87.15876694 65.91398699 83.81315733 59.66552734 80.4831543 C47.79057252 74.15420813 36.00565664 67.68969626 24.3203125 61.015625 C20.7948538 59.00512245 17.25043048 57.03829062 13.6796875 55.109375 C12.8458252 54.65667236 12.01196289 54.20396973 11.15283203 53.73754883 C9.60317974 52.89911168 8.04971118 52.0676718 6.49169922 51.24487305 C5.80865723 50.87402588 5.12561523 50.50317871 4.421875 50.12109375 C3.82987305 49.8058374 3.23787109 49.49058105 2.62792969 49.16577148 C0.37790979 47.55451698 -0.67895546 46.48462825 -2 44 C-2.43304546 40.82962395 -2.39628105 37.68755734 -2.36328125 34.4921875 C-2.36377975 33.57035675 -2.36427826 32.648526 -2.36479187 31.69876099 C-2.36245453 29.75374186 -2.35274604 27.80871953 -2.33618164 25.86376953 C-2.31253137 22.87895855 -2.31563037 19.89503747 -2.32226562 16.91015625 C-2.3166907 15.02082799 -2.30958199 13.13150349 -2.30078125 11.2421875 C-2.30169266 10.34635956 -2.30260406 9.45053162 -2.30354309 8.52755737 C-2.29401108 7.69974762 -2.28447906 6.87193787 -2.2746582 6.01904297 C-2.26774712 4.9246138 -2.26774712 4.9246138 -2.26069641 3.80807495 C-2 2 -2 2 0 0 Z " fill="#19366A" transform="translate(364,410)"/>
<path d="M0 0 C6.15240118 0.04821631 11.01339966 3.63283496 16.125 6.6875 C18.01290544 7.7927893 19.90221931 8.89567659 21.79296875 9.99609375 C22.6957959 10.52187012 23.59862305 11.04764648 24.52880859 11.58935547 C27.45405233 13.25918932 30.40807301 14.77832978 33.4375 16.25 C38.0368134 18.48542048 42.47021665 20.92824567 46.89648438 23.48852539 C52.87812958 26.94577012 58.90610014 30.31794386 64.9375 33.6875 C73.09625686 38.24829198 81.24318436 42.82885466 89.375 47.4375 C95.53071392 50.92448673 101.69535857 54.39461685 107.87890625 57.83203125 C108.46142151 58.15586288 109.04393677 58.47969452 109.644104 58.81333923 C112.5605675 60.43338692 115.4794317 62.04885321 118.40087891 63.65991211 C123.31349002 66.37244713 128.20813438 69.09536914 133.01953125 71.984375 C133.74857666 72.4165332 134.47762207 72.84869141 135.22875977 73.29394531 C136.51888115 74.06374839 137.80044401 74.84820844 139.07006836 75.65136719 C141.93043331 77.34658132 143.9152431 77.99867726 147.25390625 78.05078125 C152.4512575 76.59292151 156.94883243 74.2401063 161.6875 71.6875 C162.62400391 71.20087891 163.56050781 70.71425781 164.52539062 70.21289062 C169.02502209 67.82657644 172.40404808 65.6217657 176 62 C177.66897452 61.24469766 179.34201138 60.49511512 181.04589844 59.82226562 C184.72898663 58.2724604 188.15304877 56.21832381 191.625 54.25 C200.7408918 49.11143902 200.7408918 49.11143902 205.02734375 46.89453125 C206.77724609 45.98767578 206.77724609 45.98767578 208.5625 45.0625 C209.59503906 44.53785156 210.62757813 44.01320313 211.69140625 43.47265625 C214.30001738 42.1495197 214.30001738 42.1495197 215 39 C215.8353125 39.08765625 216.670625 39.1753125 217.53125 39.265625 C221.96413584 38.92616978 224.84455005 37.07972266 228.5 34.75 C230.00967175 33.82477662 231.52150165 32.90306801 233.03515625 31.984375 C233.83711426 31.49646484 234.63907227 31.00855469 235.46533203 30.50585938 C239.88733976 27.87872167 244.41246476 25.4439692 248.9375 23 C250.80479834 21.98848584 252.67198637 20.97676802 254.5390625 19.96484375 C255.45075195 19.47097168 256.36244141 18.97709961 257.30175781 18.46826172 C262.87496693 15.43557265 268.41451233 12.34219539 273.95703125 9.25390625 C274.93965942 8.70923706 274.93965942 8.70923706 275.94213867 8.15356445 C277.41817981 7.32614787 278.88623976 6.48443156 280.34887695 5.63354492 C281.13351318 5.18213135 281.91814941 4.73071777 282.7265625 4.265625 C283.78931396 3.6454248 283.78931396 3.6454248 284.87353516 3.01269531 C288.23280207 1.41289748 291.30731424 1.20141922 295 1 C297.44814365 4.76858704 297.33941938 8.59708091 297.37109375 12.94140625 C297.38012222 13.70549301 297.3891507 14.46957977 297.39845276 15.25682068 C297.41292814 16.86803278 297.42183525 18.4793033 297.42553711 20.09057617 C297.43747883 22.55812569 297.48672179 25.02320902 297.53710938 27.49023438 C297.54656912 29.05727948 297.5538063 30.62433991 297.55859375 32.19140625 C297.57812607 32.92895645 297.59765839 33.66650665 297.61778259 34.42640686 C297.59936523 36.51000977 297.59936523 36.51000977 297 40 C294.67651367 41.85986328 294.67651367 41.85986328 292 43 C290.88367188 43.67675781 289.76734375 44.35351562 288.6171875 45.05078125 C279.09575674 50.81422072 269.43549235 56.20006342 259.57885742 61.37036133 C251.50124402 65.60832511 243.45104011 69.89186651 235.4375 74.25 C234.54635498 74.73291504 233.65520996 75.21583008 232.73706055 75.71337891 C227.51515597 78.56239936 222.38310808 81.52649267 217.30273438 84.62109375 C211.62397515 88.02160606 205.75668049 91.0897962 199.88671875 94.14453125 C189.83762862 99.38109156 179.92097836 104.80353272 170.09277344 110.44555664 C167.40515451 111.98219013 164.70381292 113.4920947 162 115 C160.73567139 115.7412915 160.73567139 115.7412915 159.44580078 116.49755859 C153.61280822 119.73305554 148.66681108 121.36304456 142 120 C138.3997191 118.54954241 135.21473972 116.62979162 131.9375 114.5625 C130.0820709 113.44698401 128.22528272 112.33372565 126.3671875 111.22265625 C125.45678711 110.67109863 124.54638672 110.11954102 123.60839844 109.55126953 C119.99282086 107.40100934 116.29642759 105.43510775 112.5625 103.5 C99.30236699 96.56676311 86.19296296 89.35054529 73.125 82.0625 C64.15990053 77.06279132 55.13126811 72.18255543 46.1015625 67.30078125 C37.5933676 62.7006244 29.09902642 58.07548937 20.61621094 53.42871094 C17.98000144 51.9890788 15.33801683 50.56048036 12.6953125 49.1328125 C11.04670552 48.23468604 9.39825997 47.33626315 7.75 46.4375 C6.99283691 46.03184814 6.23567383 45.62619629 5.45556641 45.20825195 C2.12338201 43.3807122 0.14257271 42.21385907 -2 39 C-2.19598462 36.19390695 -2.28004847 33.48947803 -2.265625 30.68359375 C-2.26753845 29.87132828 -2.2694519 29.05906281 -2.27142334 28.22218323 C-2.27278347 26.50659881 -2.26909904 24.79100405 -2.26074219 23.07543945 C-2.25002622 20.44393931 -2.2606502 17.81311971 -2.2734375 15.18164062 C-2.27211615 13.51562349 -2.26955425 11.84960678 -2.265625 10.18359375 C-2.26967346 9.39399765 -2.27372192 8.60440155 -2.27789307 7.7908783 C-2.22992975 2.22992975 -2.22992975 2.22992975 0 0 Z " fill="#20A4DF" transform="translate(364,336)"/>
<path d="M0 0 C58.48241206 0 58.48241206 0 69 7 C74.47216506 12.56224185 77.28383046 18.34160155 77.3125 26.1875 C77.16286808 33.15719733 76.9022279 39.81728065 72.01953125 45.171875 C70.07419507 46.89341144 68.10982511 48.48653876 66 50 C66.53109375 50.37511719 67.0621875 50.75023437 67.609375 51.13671875 C73.80191995 55.62292376 77.9125313 59.88869913 81 67 C82.26902385 75.76511825 81.53564351 83.15649864 76.77734375 90.69140625 C71.67121584 97.32376141 65.36126632 101.65089628 57 103 C55.06810605 103.08401486 53.13366633 103.11781301 51.19995117 103.11352539 C50.04329956 103.11340454 48.88664795 103.11328369 47.69494629 103.11315918 C46.4897937 103.10804321 45.28464111 103.10292725 44.04296875 103.09765625 C42.92748657 103.09664917 41.81200439 103.09564209 40.66271973 103.09460449 C36.50430266 103.08938088 32.34590028 103.07541961 28.1875 103.0625 C18.885625 103.041875 9.58375 103.02125 0 103 C0 69.01 0 35.02 0 0 Z " fill="#10233F" transform="translate(180,598)"/>
<path d="M0 0 C6.6 0 13.2 0 20 0 C20 34.32 20 68.64 20 104 C13.73 104 7.46 104 1 104 C1 100.37 1 96.74 1 93 C0.34 93 -0.32 93 -1 93 C-1.185625 93.556875 -1.37125 94.11375 -1.5625 94.6875 C-4.85524472 99.98452412 -10.66336418 102.76964348 -16.484375 104.4921875 C-26.47751831 106.50943693 -34.92857488 104.91829991 -43.4453125 99.421875 C-51.45723062 93.55175677 -55.39639336 87.5172378 -58 78 C-58.185625 77.41863281 -58.37125 76.83726562 -58.5625 76.23828125 C-60.88079542 64.37771631 -59.39033211 52.049291 -53 41.8125 C-48.13612031 35.24108808 -40.81748989 30.41058046 -33 28 C-30.07921222 27.67112564 -27.18753326 27.61893761 -24.25 27.625 C-23.44667236 27.62661133 -22.64334473 27.62822266 -21.81567383 27.62988281 C-12.82710625 27.8159853 -7.99198628 30.40641098 -1 36 C-0.67 24.12 -0.34 12.24 0 0 Z " fill="#101E37" transform="translate(480,598)"/>
<path d="M0 0 C1.0859375 1.83203125 1.0859375 1.83203125 1 4 C-0.87109375 6.796875 -0.87109375 6.796875 -3.4375 9.75 C-4.28183594 10.73484375 -5.12617187 11.7196875 -5.99609375 12.734375 C-6.65738281 13.48203125 -7.31867187 14.2296875 -8 15 C-11.49541375 14.41537974 -14.31226913 13.46040567 -17.5 11.9375 C-25.50464304 8.64710114 -34.98151624 8.68801758 -43 12 C-45.06402685 12.98048938 -45.06402685 12.98048938 -46 15 C-46.49079078 19.34700407 -46.56547109 21.81520343 -44.6875 25.75 C-40.58354569 29.18586872 -36.06184261 30.4039235 -31 32 C-3.85753173 40.63170406 -3.85753173 40.63170406 2 50 C5.73732695 57.85688053 5.83774361 64.75433553 3.4375 73 C0.50989977 81.08915326 -3.58546095 86.0046753 -11.25 89.9375 C-22.72500186 95.19390613 -39.77446507 95.46314501 -51.68237305 91.1550293 C-54.55260427 89.92327795 -57.27694264 88.52849237 -60 87 C-61.54494141 86.14148438 -61.54494141 86.14148438 -63.12109375 85.265625 C-65.46110568 83.90251125 -67.74409743 82.4968577 -70 81 C-68.62815653 76.93501119 -66.77931541 74.32603439 -63.875 71.1875 C-63.15054688 70.39730469 -62.42609375 69.60710937 -61.6796875 68.79296875 C-61.12539063 68.20128906 -60.57109375 67.60960937 -60 67 C-54.58920042 68.75728385 -49.31704086 70.79971705 -44.0234375 72.87890625 C-37.7258535 75.21405691 -31.19336837 76.33993393 -24.640625 74.24609375 C-20.73240791 72.42748908 -18.55996148 71.17034928 -17 67 C-17.07275717 62.92559864 -17.17935551 60.80121211 -20.14453125 57.90625 C-23.30707035 55.79500639 -25.94683643 54.92991946 -29.625 54 C-58.48357092 46.27218184 -58.48357092 46.27218184 -65.9375 33.5 C-69.17239368 26.36388903 -69.31357388 18.70916236 -67.21875 11.19921875 C-63.80765242 3.3658768 -57.03385156 -3.41942828 -49.25 -7 C-33.07875106 -11.9757689 -13.76139342 -10.21490001 0 0 Z " fill="#1C50D6" transform="translate(583,609)"/>
<path d="M0 0 C6.6 0 13.2 0 20 0 C20.33 19.47 20.66 38.94 21 59 C23.31 56.03 25.62 53.06 28 50 C29.90365017 47.71512146 31.8123256 45.44259969 33.75 43.1875 C37.26245345 39.18124913 37.26245345 39.18124913 40.33422852 34.84204102 C42 33 42 33 44.36010742 32.54589844 C45.26607666 32.5668457 46.1720459 32.58779297 47.10546875 32.609375 C48.57983398 32.62871094 48.57983398 32.62871094 50.08398438 32.6484375 C51.10814453 32.68195312 52.13230469 32.71546875 53.1875 32.75 C54.22326172 32.76804687 55.25902344 32.78609375 56.32617188 32.8046875 C58.88504284 32.85185563 61.44205842 32.91765943 64 33 C57.26956863 42.05474174 50.22470477 50.77729415 42.62890625 59.125 C40.83551807 61.10921189 40.83551807 61.10921189 39 64 C39.34513004 67.10923822 40.50877448 68.95935628 42.484375 71.328125 C43.00161133 71.95557617 43.51884766 72.58302734 44.05175781 73.22949219 C44.61217773 73.89625977 45.17259766 74.56302734 45.75 75.25 C46.32331055 75.94512695 46.89662109 76.64025391 47.48730469 77.35644531 C49.31846141 79.5763615 51.15812026 81.78897526 53 84 C55.42444014 86.91034046 57.83988784 89.82778981 60.25 92.75 C60.81041992 93.41676758 61.37083984 94.08353516 61.94824219 94.77050781 C62.46547852 95.39795898 62.98271484 96.02541016 63.515625 96.671875 C63.97227539 97.2194043 64.42892578 97.76693359 64.89941406 98.33105469 C66.13040643 100.1977503 66.57999955 101.81671155 67 104 C48.66590144 106.20775833 48.66590144 106.20775833 43.03955078 102.81933594 C39.72734082 99.68017452 37.47077459 95.86814839 35.19873047 91.94238281 C33.22171058 88.73888582 30.77276565 85.96323458 28.3125 83.125 C27.48363281 82.13757813 26.65476562 81.15015625 25.80078125 80.1328125 C25.20652344 79.42898438 24.61226562 78.72515625 24 78 C22.515 78.495 22.515 78.495 21 79 C20.67 87.25 20.34 95.5 20 104 C13.4 104 6.8 104 0 104 C0 69.68 0 35.36 0 0 Z " fill="#39DBE1" transform="translate(784,598)"/>
<path d="M0 0 C0.92490234 -0.01998047 1.84980469 -0.03996094 2.80273438 -0.06054688 C10.64641808 -0.05505025 17.30864538 1.6738574 23.68359375 6.3671875 C24.28300781 7.00914062 24.88242187 7.65109375 25.5 8.3125 C26.42619141 9.26769531 26.42619141 9.26769531 27.37109375 10.2421875 C32.531119 16.9394951 32.46544327 22.66649345 32.35546875 30.8359375 C32.35122391 32.02603424 32.34697906 33.21613098 32.34260559 34.44229126 C32.32585169 38.23259375 32.28820416 42.02235898 32.25 45.8125 C32.23494897 48.38671106 32.2212613 50.96093047 32.20898438 53.53515625 C32.1759587 59.8361436 32.1241978 66.13673079 32.0625 72.4375 C26.1225 72.4375 20.1825 72.4375 14.0625 72.4375 C13.5675 68.9725 13.5675 68.9725 13.0625 65.4375 C12.258125 66.18 11.45375 66.9225 10.625 67.6875 C3.74483039 73.30363845 -2.82842936 75.1881293 -11.71484375 74.88671875 C-18.11430834 73.99467217 -23.57375266 71.30773327 -27.9375 66.5 C-32.34922521 59.74454577 -32.59254496 53.34170913 -31.9375 45.4375 C-30.15606404 39.26185535 -24.98962448 35.16365161 -19.9375 31.4375 C-11.52499185 27.57808846 -0.17966928 26.87468615 8.74609375 29.109375 C10.9375 29.9375 10.9375 29.9375 14.0625 31.4375 C13.29266674 24.50693587 13.29266674 24.50693587 9.5625 18.875 C4.11572894 15.74310664 -0.70624747 15.86501744 -6.9375 16.4375 C-9.92553948 17.33428865 -12.71075148 18.39978525 -15.5625 19.66015625 C-18.30069611 20.55637504 -19.33459365 20.64655792 -21.9375 19.4375 C-23.89453125 17.4765625 -23.89453125 17.4765625 -25.75 15.0625 C-26.37519531 14.27101563 -27.00039063 13.47953125 -27.64453125 12.6640625 C-28.07121094 11.92929687 -28.49789062 11.19453125 -28.9375 10.4375 C-27.9375 7.4375 -27.9375 7.4375 -26.40625 6.375 C-25.7565625 6.065625 -25.106875 5.75625 -24.4375 5.4375 C-23.8084375 5.128125 -23.179375 4.81875 -22.53125 4.5 C-14.83599125 1.34772533 -8.35895998 -0.06380885 0 0 Z " fill="#2086DD" transform="translate(675.9375,628.5625)"/>
<path d="M0 0 C6.6 0 13.2 0 20 0 C20.01458252 1.4226416 20.02916504 2.8452832 20.04418945 4.31103516 C20.10225816 9.6003505 20.17949126 14.88924397 20.26245117 20.17822266 C20.29566006 22.46526226 20.32370451 24.75238303 20.34643555 27.03955078 C20.3800551 30.33140578 20.43237624 33.62251972 20.48828125 36.9140625 C20.49467117 37.93303619 20.5010611 38.95200989 20.50764465 40.00186157 C20.63767229 46.31165844 21.16637597 51.17830701 25.85546875 55.84765625 C30.00029181 58.07483804 34.44203164 57.56732845 39 57 C43.16138208 55.7403384 45.5087765 53.88443411 47.65551758 50.01928711 C49.5698375 45.20629371 49.47800504 40.37204035 49.51171875 35.25390625 C49.52966995 34.24279282 49.54762115 33.23167938 49.56611633 32.18992615 C49.62002042 28.9808257 49.65405149 25.77187231 49.6875 22.5625 C49.7206906 20.37823484 49.75518186 18.19398902 49.79101562 16.00976562 C49.87816873 10.67315823 49.93840867 5.33720771 50 0 C56.6 0 63.2 0 70 0 C70 24.75 70 49.5 70 75 C64.06 75 58.12 75 52 75 C52 71.7 52 68.4 52 65 C51.32195312 65.54269531 50.64390625 66.08539062 49.9453125 66.64453125 C40.87330866 73.61816301 32.59406268 77.34986695 21 76 C14.09489014 74.56097064 8.60658469 71.88515333 4.55859375 65.8515625 C1.16146708 60.02515151 -0.12937912 55.24488394 -0.11352539 48.4753418 C-0.11344986 47.39459885 -0.11337433 46.3138559 -0.11329651 45.20036316 C-0.10813522 44.0449855 -0.10297394 42.88960785 -0.09765625 41.69921875 C-0.0962413 40.50770706 -0.09482635 39.31619537 -0.09336853 38.08857727 C-0.08777728 34.28819249 -0.07522632 30.48786693 -0.0625 26.6875 C-0.05748387 24.10872481 -0.05292116 21.5299487 -0.04882812 18.95117188 C-0.0378107 12.63409182 -0.02055201 6.31705594 0 0 Z " fill="#112442" transform="translate(270,627)"/>
<path d="M0 0 C6.6 0 13.2 0 20 0 C20 7.26 20 14.52 20 22 C26.6 22 33.2 22 40 22 C40 27.28 40 32.56 40 38 C33.4 38 26.8 38 20 38 C20.05106137 43.05507565 20.1139973 48.10707566 20.20751953 53.16113281 C20.23572067 54.87978169 20.25693954 56.59856005 20.27099609 58.31738281 C20.29243833 60.79038747 20.33909156 63.26183675 20.390625 65.734375 C20.39185364 66.50118591 20.39308228 67.26799683 20.39434814 68.05804443 C20.49014645 71.55815631 20.73074298 73.63175568 22.82226562 76.4921875 C25.98973662 78.68527056 28.45015639 78.39073495 32.25 78.25 C33.51328125 78.21390625 34.7765625 78.1778125 36.078125 78.140625 C37.04234375 78.09421875 38.0065625 78.0478125 39 78 C42.83120205 88.4673913 42.83120205 88.4673913 42 92 C35.71774202 97.33040071 25.79821702 96.57110777 18 96 C12.5991817 94.85491832 7.4767645 92.3946771 4 88 C-1.49419592 78.36742631 -0.45512471 67.49349855 -0.25 56.8125 C-0.22989843 54.98374358 -0.21165415 53.15496576 -0.1953125 51.32617188 C-0.15161983 46.88357815 -0.08279646 42.44202996 0 38 C-3.63 38 -7.26 38 -11 38 C-11 32.72 -11 27.44 -11 22 C-7.37 22 -3.74 22 0 22 C0 14.74 0 7.48 0 0 Z " fill="#1E60DD" transform="translate(600,607)"/>
<path d="M0 0 C0.76892578 -0.020625 1.53785156 -0.04125 2.33007812 -0.0625 C10.79706841 -0.11966112 17.06179847 2.94488866 24.1875 7.25 C23.60207824 10.87636257 22.16103457 12.70885414 19.6875 15.375 C17.13288114 18.10237239 17.13288114 18.10237239 15.1875 21.25 C10.3125 20.375 10.3125 20.375 9.1875 19.25 C6.58968031 19.09579153 4.03674714 19.01830456 1.4375 19 C0.72078125 18.979375 0.0040625 18.95875 -0.734375 18.9375 C-5.31779057 18.90379841 -8.16835374 19.44320353 -11.8125 22.25 C-16.77716475 27.62838681 -17.23250475 32.28643029 -17.15625 39.42578125 C-16.44796323 45.24500096 -13.32721302 48.7722312 -9.25 52.75 C-1.73532818 56.02912952 6.16489479 54.76929561 13.640625 51.90625 C14.15109375 51.6896875 14.6615625 51.473125 15.1875 51.25 C16.67542961 52.82510125 18.1525606 54.41040864 19.625 56 C20.44871094 56.88171875 21.27242187 57.7634375 22.12109375 58.671875 C24.01818018 61.03875032 24.80852932 62.3009191 25.1875 65.25 C12.95030572 72.9985513 2.61109622 76.71883581 -12.01171875 73.55859375 C-22.23318476 70.15143841 -30.07635187 63.74114282 -35.0625 54.125 C-39.17350063 45.73451511 -39.65523481 34.07667156 -37.23388672 25.10644531 C-33.16236908 14.21493355 -26.57547259 7.18037975 -16.2421875 2.1953125 C-10.88444872 0.11079034 -5.67714261 0.03750383 0 0 Z " fill="#2FC2DF" transform="translate(752.8125,628.75)"/>
<path d="M0 0 C6.93 0 13.86 0 21 0 C21 34.32 21 68.64 21 104 C14.07 104 7.14 104 0 104 C0 69.68 0 35.36 0 0 Z " fill="#16253F" transform="translate(391,598)"/>
<path d="M0 0 C6.6 0 13.2 0 20 0 C20.02255209 9.63113018 20.0409157 19.26224295 20.05181217 28.89339352 C20.05704074 33.36505549 20.06413789 37.83669853 20.07543945 42.30834961 C20.08626929 46.62011973 20.09227704 50.93187159 20.09487724 55.24365425 C20.09673132 56.89236298 20.1003516 58.54107066 20.10573006 60.18977165 C20.11294178 62.49103872 20.11399089 64.7922294 20.11352539 67.09350586 C20.115746 68.4058873 20.11796661 69.71826874 20.12025452 71.07041931 C20 74 20 74 19 75 C12.73 75 6.46 75 0 75 C0 50.25 0 25.5 0 0 Z " fill="#132542" transform="translate(355,627)"/>
<path d="M0 0 C4.80283069 2.17813384 7.71039683 4.98394368 10.68359375 9.30859375 C12.87116931 15.57493921 13.03934358 24.74909613 10.671875 30.96484375 C8.21660843 34.91686442 5.4341444 38.47708219 1.18359375 40.49609375 C-4.99709385 41.93089623 -10.88065874 42.48136107 -16.69140625 39.68359375 C-21.9157965 34.95676447 -25.91614625 30.46194099 -26.6171875 23.1875 C-26.64482349 15.36651477 -26.25612212 10.63511434 -20.94140625 4.62109375 C-14.54456858 -1.01421563 -8.38188928 -2.50184554 0 0 Z " fill="#F6F7F8" transform="translate(467.31640625,643.69140625)"/>
<path d="M0 0 C4.30562412 -0.06911525 8.60930087 -0.12876967 12.91503906 -0.16479492 C14.37767075 -0.17982196 15.84025782 -0.20024955 17.30273438 -0.22631836 C19.4128728 -0.26297267 21.52241226 -0.27978676 23.6328125 -0.29296875 C24.90012207 -0.3086792 26.16743164 -0.32438965 27.47314453 -0.34057617 C32.44609672 0.13964453 35.70387494 1.77393575 39.3125 5.1875 C41.48007993 8.80013322 42.20613853 11.79477389 42 16 C40.71067107 19.79635741 39.71303101 21.49566099 36.4375 23.8125 C35.633125 24.204375 34.82875 24.59625 34 25 C33.01 25.495 33.01 25.495 32 26 C29.59161322 26.08639869 27.21266119 26.11567764 24.8046875 26.09765625 C24.09724396 26.0962413 23.38980042 26.09482635 22.66091919 26.09336853 C20.39890331 26.087766 18.13698602 26.07521318 15.875 26.0625 C14.34244935 26.05748532 12.80989714 26.05292236 11.27734375 26.04882812 C7.51816053 26.03864616 3.75919076 26.01907143 0 26 C0 17.42 0 8.84 0 0 Z " fill="#F9F9FA" transform="translate(200,658)"/>
<path d="M0 0 C4.18789248 -0.08117236 8.37420034 -0.14059104 12.5625 -0.1875 C13.74392578 -0.21263672 14.92535156 -0.23777344 16.14257812 -0.26367188 C22.53044685 -0.31735144 27.42884098 -0.26985968 33 3 C35.89392896 6.12239703 37.86093851 8.47032365 38.25 12.75 C37.90483982 17.2370823 36.54574236 20.45766536 33.33886719 23.6574707 C30.07722297 25.52968172 27.57234906 25.33900429 23.828125 25.29296875 C22.8044986 25.28660149 22.8044986 25.28660149 21.76019287 25.28010559 C19.58971996 25.26336972 17.42019021 25.22572959 15.25 25.1875 C13.77475303 25.17244646 12.29949145 25.15875922 10.82421875 25.14648438 C7.21549393 25.11603956 3.60879725 25.05731619 0 25 C0 16.75 0 8.5 0 0 Z " fill="#F6F6F8" transform="translate(200,616)"/>
<path d="M0 0 C0.70640625 0.05220703 1.4128125 0.10441406 2.140625 0.15820312 C3.88579987 0.28791207 5.63045725 0.42454954 7.375 0.5625 C7.52053599 4.45793877 7.60915059 8.35267651 7.6875 12.25 C7.72939453 13.35279297 7.77128906 14.45558594 7.81445312 15.59179688 C7.9382613 23.78789778 7.9382613 23.78789778 5.04296875 27.76953125 C0.76773577 30.64263804 -2.53879951 30.99353394 -7.625 30.5625 C-11.0625 28.5625 -11.0625 28.5625 -13.625 26.5625 C-12.965 25.5725 -12.305 24.5825 -11.625 23.5625 C-10.635 23.8925 -9.645 24.2225 -8.625 24.5625 C-7.06381572 24.62990865 -5.4999748 24.64764456 -3.9375 24.625 C-3.12925781 24.61597656 -2.32101562 24.60695313 -1.48828125 24.59765625 C-0.87339844 24.58605469 -0.25851562 24.57445312 0.375 24.5625 C0.375 23.2425 0.375 21.9225 0.375 20.5625 C-0.21667969 20.62050781 -0.80835938 20.67851563 -1.41796875 20.73828125 C-5.67794066 20.98150966 -7.9590175 20.9926137 -11.625 18.625 C-14.22203626 14.64828822 -15.21789302 11.31399478 -14.625 6.5625 C-11.05730504 -0.16715206 -6.96115382 -0.55869039 0 0 Z " fill="#21334F" transform="translate(463.625,762.4375)"/>
<path d="M0 0 C1.01612903 9.96774194 1.01612903 9.96774194 -1.06640625 14.1328125 C-4.85577341 18.06463707 -8.80230539 18.4582663 -14.125 18.6875 C-18.38121186 18.47468941 -20.62075036 18.21069424 -24.375 16.125 C-26.66544129 11.7203052 -27.05111406 7.86140252 -26 3 C-18.95136982 -4.60510098 -9.12760301 -2.46930323 0 0 Z " fill="#F2F6FA" transform="translate(690,671)"/>
<path d="M0 0 C3.16118708 1.63913404 5.26864575 3.00269875 7.375 5.875 C8.23855538 8.81108828 8.36658209 10.94514926 8 14 C5.96006092 17.6578218 4.49580738 19.66946174 1 22 C-3.21251918 22.81930235 -7.2874643 23.10692386 -10.98828125 20.71484375 C-13.81344802 17.75482415 -15.37827568 15.05256208 -15.6875 10.9375 C-14.82510096 5.99830551 -13.53838305 4.45413584 -10 1 C-6.78501861 -0.6074907 -3.48701742 -0.47314549 0 0 Z " fill="#243653" transform="translate(436,762)"/>
<path d="M0 0 C3.70390021 2.02666238 5.65363011 3.48044516 8 7 C8.46287185 11.99901603 8.10431905 15.00873265 5 19 C3.09180914 21.12836673 1.7416826 21.88589498 -1.08203125 22.3203125 C-5.11881639 22.52114758 -7.4092612 22.3519295 -10.9375 20.25 C-14.32237842 16.55740536 -15.01928008 15.21464506 -14.9375 10.0625 C-14.28014922 5.7656705 -12.39286462 3.73084225 -9 1 C-5.89046621 -0.5547669 -3.43733239 -0.28644437 0 0 Z " fill="#182A46" transform="translate(326,762)"/>
<path d="M0 0 C3.19319918 1.52402688 5.75765902 3.26006089 8 6 C8.68955439 9.39030911 8.59693351 12.59747901 8 16 C5.46345253 19.27081121 3.21568066 21.6952895 -0.98828125 22.2734375 C-5.48027315 22.46972622 -7.34969305 22.51482633 -11 19.625 C-13.80332533 15.9456355 -14.34004055 13.71664019 -14.2890625 9.03515625 C-13.83609822 5.84604286 -12.26079568 4.19620152 -10 2 C-6.27420911 -0.48386059 -4.41288598 -0.3804212 0 0 Z " fill="#1D304C" transform="translate(566,762)"/>
<path d="M0 0 C2.875 1 2.875 1 5 2 C5.66 1.34 6.32 0.68 7 0 C10.87490901 -0.43866894 13.24337983 -0.40338539 16.7109375 1.4453125 C20.07763128 5.20268064 19.55936796 8.38860022 19.3125 13.25 C19.28994141 14.09046875 19.26738281 14.9309375 19.24414062 15.796875 C19.18537714 17.86534964 19.09569885 19.93290488 19 22 C17.35 22 15.7 22 14 22 C13.93941406 20.92878906 13.87882812 19.85757813 13.81640625 18.75390625 C13.73201463 17.35675609 13.64736594 15.95962143 13.5625 14.5625 C13.52318359 13.85544922 13.48386719 13.14839844 13.44335938 12.41992188 C13.52375562 8.91309581 13.52375562 8.91309581 12 6 C10.02 6 8.04 6 6 6 C5.67 11.28 5.34 16.56 5 22 C3.35 22 1.7 22 0 22 C-0.06058594 20.92878906 -0.12117188 19.85757813 -0.18359375 18.75390625 C-0.26798537 17.35675609 -0.35263406 15.95962143 -0.4375 14.5625 C-0.47681641 13.85544922 -0.51613281 13.14839844 -0.55664062 12.41992188 C-0.47624438 8.91309581 -0.47624438 8.91309581 -2 6 C-4.5 5.83333333 -4.5 5.83333333 -7 6 C-8.99616554 7.99616554 -8.40983427 11.81701963 -8.5625 14.5625 C-8.60568359 15.27341797 -8.64886719 15.98433594 -8.69335938 16.71679688 C-8.79971777 18.47761912 -8.90038846 20.2387832 -9 22 C-10.65 22 -12.3 22 -14 22 C-14 15.07 -14 8.14 -14 1 C-12.02 1 -10.04 1 -8 1 C-5.21084611 -0.39457694 -3.09726736 -0.1821922 0 0 Z " fill="#192944" transform="translate(355,762)"/>
<path d="M0 0 C2.93423195 1.79646854 4.47205355 2.9441071 6 6 C6.58029015 13.07953977 6.58029015 13.07953977 4.1875 16.875 C1.1059411 19.86851436 -0.47991853 20.94031852 -4.8125 21.4375 C-8.2074839 21.32475146 -9.29743472 20.83235498 -12.4375 19.0625 C-15.73131058 15.12599467 -16.4144835 12.07512013 -16 7 C-12.83048512 -0.44835997 -7.34168371 -0.98357485 0 0 Z " fill="#122646" transform="translate(369,597)"/>
<path d="M0 0 C22.77 0 45.54 0 69 0 C69 1.65 69 3.3 69 5 C46.23 5 23.46 5 0 5 C0 3.35 0 1.7 0 0 Z " fill="#529FF0" transform="translate(175,770)"/>
<path d="M0 0 C6.93 0 13.86 0 21 0 C21 1.65 21 3.3 21 5 C16.05 5 11.1 5 6 5 C6 7.64 6 10.28 6 13 C10.29 13 14.58 13 19 13 C19 14.65 19 16.3 19 18 C14.71 18 10.42 18 6 18 C6 21.96 6 25.92 6 30 C4.02 30 2.04 30 0 30 C0 20.1 0 10.2 0 0 Z " fill="#31405A" transform="translate(266,754)"/>
<path d="M0 0 C1.12535156 -0.04253906 1.12535156 -0.04253906 2.2734375 -0.0859375 C5.79018965 0.60339266 7.26094256 1.66730549 9.625 4.375 C10.23287651 7.48133924 10.09745274 10.47516152 9.9375 13.625 C9.91494141 14.46546875 9.89238281 15.3059375 9.86914062 16.171875 C9.81037714 18.24034964 9.72069885 20.30790488 9.625 22.375 C7.18683415 22.4559723 4.75135616 22.51546972 2.3125 22.5625 C1.27706055 22.60020508 1.27706055 22.60020508 0.22070312 22.63867188 C-4.86436074 22.71236845 -4.86436074 22.71236845 -7.33203125 21.08203125 C-9.10057834 18.18744293 -8.72687635 15.65917924 -8.375 12.375 C-7.20703125 10.66796875 -7.20703125 10.66796875 -5.375 9.375 C-2.67578125 9.08203125 -2.67578125 9.08203125 0.3125 9.1875 C1.30636719 9.21457031 2.30023437 9.24164062 3.32421875 9.26953125 C4.46310547 9.32173828 4.46310547 9.32173828 5.625 9.375 C4.965 8.385 4.305 7.395 3.625 6.375 C1.18806689 6.01083953 1.18806689 6.01083953 -1.5 6.1875 C-2.41007813 6.21457031 -3.32015625 6.24164062 -4.2578125 6.26953125 C-4.95648437 6.30433594 -5.65515625 6.33914063 -6.375 6.375 C-6.705 5.055 -7.035 3.735 -7.375 2.375 C-4.32767415 0.34344943 -3.48080195 0.05939935 0 0 Z " fill="#243751" transform="translate(630.375,761.625)"/>
<path d="M0 0 C1.65 0 3.3 0 5 0 C5.33 3.3 5.66 6.6 6 10 C6.66 9.34 7.32 8.68 8 8 C11.58949129 7.52140116 13.49058071 7.71929957 16.6796875 9.4765625 C19.58310408 12.63415023 19.52802226 14.24949593 19.43945312 18.39453125 C19.39755859 19.17183594 19.35566406 19.94914063 19.3125 20.75 C19.28994141 21.54277344 19.26738281 22.33554687 19.24414062 23.15234375 C19.18540471 25.1023762 19.09572654 27.05143312 19 29 C17.68 29 16.36 29 15 29 C14.93941406 28.00097656 14.87882813 27.00195312 14.81640625 25.97265625 C14.69072266 24.03712891 14.69072266 24.03712891 14.5625 22.0625 C14.48128906 20.77472656 14.40007813 19.48695313 14.31640625 18.16015625 C14.35080812 15.13976043 14.35080812 15.13976043 13 14 C10 13.83333333 10 13.83333333 7 14 C5.00383446 15.99616554 5.59016573 19.81701963 5.4375 22.5625 C5.39431641 23.27341797 5.35113281 23.98433594 5.30664062 24.71679688 C5.20028223 26.47761912 5.09961154 28.2387832 5 30 C3.35 30 1.7 30 0 30 C0 20.1 0 10.2 0 0 Z " fill="#2B3E58" transform="translate(729,754)"/>
<path d="M0 0 C1.65 0 3.3 0 5 0 C5.06058594 1.07121094 5.12117187 2.14242187 5.18359375 3.24609375 C5.26798537 4.64324391 5.35263406 6.04037857 5.4375 7.4375 C5.47681641 8.14455078 5.51613281 8.85160156 5.55664062 9.58007812 C5.47624438 13.08690419 5.47624438 13.08690419 7 16 C8.99958364 16.04080783 11.00045254 16.04254356 13 16 C14.41634833 13.16730334 14.3463005 10.52533562 14.5625 7.375 C14.64628906 6.18648437 14.73007812 4.99796875 14.81640625 3.7734375 C14.87699219 2.85820313 14.93757812 1.94296875 15 1 C16.65 1 18.3 1 20 1 C20 7.93 20 14.86 20 22 C18.35 22 16.7 22 15 22 C15 21.34 15 20.68 15 20 C14.01 20.66 13.02 21.32 12 22 C6.30530973 22.63274336 6.30530973 22.63274336 4 22 C1.60307598 19.88334458 0.19053 18.21557249 -0.31420898 14.99536133 C-0.39340723 12.7127818 -0.34945088 10.46913265 -0.25 8.1875 C-0.23195313 7.39923828 -0.21390625 6.61097656 -0.1953125 5.79882812 C-0.14844048 3.86535739 -0.0767041 1.93251715 0 0 Z " fill="#31445D" transform="translate(648,762)"/>
<path d="M0 0 C1.98 0 3.96 0 6 0 C6 8.25 6 16.5 6 25 C10.95 25 15.9 25 21 25 C21 26.65 21 28.3 21 30 C14.07 30 7.14 30 0 30 C0 20.1 0 10.2 0 0 Z " fill="#3A4B63" transform="translate(596,754)"/>
<path d="M0 0 C2.72590774 2.00668135 4.71453047 3.56969139 5.40014648 7.00488281 C5.49174285 9.29352338 5.43709979 11.52561463 5.3125 13.8125 C5.28994141 14.60076172 5.26738281 15.38902344 5.24414062 16.20117188 C5.18554161 18.13493929 5.09586827 20.06772167 5 22 C3.35 22 1.7 22 0 22 C-0.06058594 20.92878906 -0.12117188 19.85757813 -0.18359375 18.75390625 C-0.26798537 17.35675609 -0.35263406 15.95962143 -0.4375 14.5625 C-0.47681641 13.85544922 -0.51613281 13.14839844 -0.55664062 12.41992188 C-0.47624438 8.91309581 -0.47624438 8.91309581 -2 6 C-5 5.83333333 -5 5.83333333 -8 6 C-9.99616554 7.99616554 -9.40983427 11.81701963 -9.5625 14.5625 C-9.60568359 15.27341797 -9.64886719 15.98433594 -9.69335938 16.71679688 C-9.79971777 18.47761912 -9.90038846 20.2387832 -10 22 C-11.65 22 -13.3 22 -15 22 C-15 15.07 -15 8.14 -15 1 C-12.66666667 1 -10.33333333 1 -8 1 C-5.11138291 -0.44430855 -3.20352299 -0.37688506 0 0 Z " fill="#213351" transform="translate(508,762)"/>
<path d="M0 0 C2.2109375 1.47265625 2.2109375 1.47265625 4 4 C4.48209856 6.93394603 4.37775715 9.7870169 4.25 12.75 C4.23195313 13.54277344 4.21390625 14.33554687 4.1953125 15.15234375 C4.14833082 17.10208348 4.07659044 19.05119878 4 21 C2.68 21 1.36 21 0 21 C-0.06058594 20.00097656 -0.12117187 19.00195312 -0.18359375 17.97265625 C-0.30927734 16.03712891 -0.30927734 16.03712891 -0.4375 14.0625 C-0.51871094 12.77472656 -0.59992187 11.48695313 -0.68359375 10.16015625 C-0.64919188 7.13976043 -0.64919188 7.13976043 -2 6 C-5 5.83333333 -5 5.83333333 -8 6 C-9.99616554 7.99616554 -9.40983427 11.81701963 -9.5625 14.5625 C-9.60568359 15.27341797 -9.64886719 15.98433594 -9.69335938 16.71679688 C-9.79971777 18.47761912 -9.90038846 20.2387832 -10 22 C-11.65 22 -13.3 22 -15 22 C-15 15.07 -15 8.14 -15 1 C-13.68 1 -12.36 1 -11 1 C-11 1.66 -11 2.32 -11 3 C-10.34 3 -9.68 3 -9 3 C-9 2.34 -9 1.68 -9 1 C-5.90826248 -0.54586876 -3.40570448 -0.29359521 0 0 Z " fill="#2D3F59" transform="translate(691,762)"/>
<path d="M0 0 C1.65 0 3.3 0 5 0 C5 8.25 5 16.5 5 25 C9.95 25 14.9 25 20 25 C20 26.65 20 28.3 20 30 C13.4 30 6.8 30 0 30 C0 20.1 0 10.2 0 0 Z " fill="#1F2E4A" transform="translate(396,754)"/>
<path d="M0 0 C2.5 1.5 2.5 1.5 4 3 C3.67 4.32 3.34 5.64 3 7 C2.01 6.67 1.02 6.34 0 6 C-3.54178598 5.74996036 -3.54178598 5.74996036 -7 6 C-9.31563087 7.88500271 -9.31563087 7.88500271 -9.25 11 C-9.31563087 14.11499729 -9.31563087 14.11499729 -7 16 C-3.58343976 16.16677282 -3.58343976 16.16677282 0 16 C1.32 16 2.64 16 4 16 C4 17.32 4 18.64 4 20 C0.29462345 22.47025103 -3.69688915 22.70150117 -8 22 C-11.4431146 19.90419111 -13.7468218 17.8734599 -15 14 C-15.52055293 10.00909419 -15.16996586 8.30476637 -13.1875 4.75 C-9.38316713 -0.0325899 -5.89324551 -0.81817694 0 0 Z " fill="#273B56" transform="translate(717,762)"/>
<path d="M0 0 C22.44 0 44.88 0 68 0 C68 0.99 68 1.98 68 3 C45.56 3 23.12 3 0 3 C0 2.01 0 1.02 0 0 Z " fill="#3AD7E0" transform="translate(783,771)"/>
<path d="M0 0 C1.98 0 3.96 0 6 0 C6 1.98 6 3.96 6 6 C7.65 6 9.3 6 11 6 C11 7.65 11 9.3 11 11 C9.35 11 7.7 11 6 11 C6.33 14.96 6.66 18.92 7 23 C8.32 23.33 9.64 23.66 11 24 C11 25.32 11 26.64 11 28 C4.58718861 28.36298932 4.58718861 28.36298932 2.28125 26.9375 C0.30862898 23.95451212 0.71558327 21.33380768 0.8125 17.8125 C0.83957031 16.54019531 0.86664062 15.26789062 0.89453125 13.95703125 C0.92933594 12.98121094 0.96414063 12.00539063 1 11 C-0.32 11 -1.64 11 -3 11 C-3 9.68 -3 8.36 -3 7 C-2.01 7 -1.02 7 0 7 C0 4.69 0 2.38 0 0 Z " fill="#36465E" transform="translate(536,756)"/>
<path d="M0 0 C1.2065625 0.0309375 1.2065625 0.0309375 2.4375 0.0625 C2.4375 1.7125 2.4375 3.3625 2.4375 5.0625 C1.468125 5.18625 0.49875 5.31 -0.5 5.4375 C-2.0159375 5.746875 -2.0159375 5.746875 -3.5625 6.0625 C-5.0432848 9.0240696 -4.91564037 11.89756295 -5.125 15.1875 C-5.20878906 16.46882812 -5.29257812 17.75015625 -5.37890625 19.0703125 C-5.46978516 20.55144531 -5.46978516 20.55144531 -5.5625 22.0625 C-7.2125 22.0625 -8.8625 22.0625 -10.5625 22.0625 C-10.5625 15.1325 -10.5625 8.2025 -10.5625 1.0625 C-8.22916667 1.0625 -5.89583333 1.0625 -3.5625 1.0625 C-2.5625 0.0625 -2.5625 0.0625 0 0 Z " fill="#283A55" transform="translate(304.5625,761.9375)"/>
<path d="M0 0 C1.9375 1.125 1.9375 1.125 3 3 C3.54624158 6.66762206 3.47898298 8.3258758 1.3125 11.375 C-1 13 -1 13 -3.5 13.5625 C-6 13 -6 13 -8.3125 10.8125 C-10.1320144 7.77997601 -10.63606137 6.45290456 -10 3 C-7.66004009 -0.99169632 -4.2277022 -0.45296809 0 0 Z " fill="#EDEEF2" transform="translate(326,767)"/>
<path d="M0 0 C0.99386719 0.02707031 1.98773437 0.05414062 3.01171875 0.08203125 C4.15060547 0.13423828 4.15060547 0.13423828 5.3125 0.1875 C5.3125 0.5175 5.3125 0.8475 5.3125 1.1875 C0.8575 1.6825 0.8575 1.6825 -3.6875 2.1875 C-1.0475 2.5175 1.5925 2.8475 4.3125 3.1875 C4.3125 10.1875 4.3125 10.1875 2.3125 13.1875 C-4.47134798 13.83358076 -4.47134798 13.83358076 -7.6875 12.125 C-9.27183618 9.05534865 -9.04998449 6.57068857 -8.6875 3.1875 C-6.30590396 -0.29329422 -4.02492973 -0.14205634 0 0 Z " fill="#283952" transform="translate(630.6875,770.8125)"/>
<path d="M0 0 C2 2 2 2 2.3125 5.9375 C2.2339218 8.48435809 2.13665953 9.75704973 0.875 12 C-1.93163039 13.49686954 -3.87757843 13.45535315 -7 13 C-9.59814888 10.74827097 -9.95716454 9.34982295 -10.375 5.9375 C-10 3 -10 3 -8.9375 1.125 C-5.93267901 -0.61973477 -3.39189869 -0.30835443 0 0 Z " fill="#F0F1F4" transform="translate(567,767)"/>
<path d="M0 0 C0.12375 1.11375 0.2475 2.2275 0.375 3.375 C0.6465813 7.03103677 0.6465813 7.03103677 3 9 C6.79877599 9.35173852 9.14360153 9.52701444 12.4375 7.5 C12.953125 7.005 13.46875 6.51 14 6 C14.66 6.66 15.32 7.32 16 8 C15.82436591 10.72232838 15.2738859 11.74939746 13.25390625 13.59765625 C9.36521449 16.01713691 5.42064374 15.73558369 1 15 C-2.125 13.0625 -2.125 13.0625 -4 10 C-4.3825413 6.94987073 -4.29944435 4.05433232 -4 1 C-2 0 -2 0 0 0 Z " fill="#1C2E4A" transform="translate(426,769)"/>
<path d="M0 0 C2 1.0625 2 1.0625 3 3 C2.66666667 9.33333333 2.66666667 9.33333333 0 12 C-6.14231015 12.6700702 -6.14231015 12.6700702 -9 10.4375 C-10.41694272 6.98370211 -9.87594988 4.57118028 -9 1 C-5.95016004 -0.52491998 -3.3576631 -0.23562548 0 0 Z " fill="#EBECEF" transform="translate(464,767)"/>
<path d="M0 0 C1.9375 1.125 1.9375 1.125 3 3 C3.38976435 6.11811483 3.50422245 8.11019567 1.9375 10.875 C-1.1069286 12.64273274 -3.5631012 12.36823916 -7 12 C-8.9375 10.875 -8.9375 10.875 -10 9 C-10.38976435 5.88188517 -10.50422245 3.88980433 -8.9375 1.125 C-5.8930714 -0.64273274 -3.4368988 -0.36823916 0 0 Z " fill="#F2F3F5" transform="translate(436,767)"/>
<path d="M0 0 C0 0.33 0 0.66 0 1 C-1.65 1.33 -3.3 1.66 -5 2 C-5 2.66 -5 3.32 -5 4 C-3.68 4.33 -2.36 4.66 -1 5 C-3.31 5.33 -5.62 5.66 -8 6 C-8.28295224 11.47040997 -8.37091468 15.39308327 -5 20 C-1.91038542 20.97474816 -1.91038542 20.97474816 1 21 C1 21.33 1 21.66 1 22 C-7.00826446 22.78512397 -7.00826446 22.78512397 -11 19.625 C-13.80332533 15.9456355 -14.34004055 13.71664019 -14.2890625 9.03515625 C-13.83609822 5.84604286 -12.26079568 4.19620152 -10 2 C-6.3558226 -0.4294516 -4.28758728 -0.16179575 0 0 Z " fill="#23354F" transform="translate(566,762)"/>
<path d="M0 0 C1.65 0 3.3 0 5 0 C5 6.93 5 13.86 5 21 C3.35 21 1.7 21 0 21 C0 20.34 0 19.68 0 19 C-0.66 19 -1.32 19 -2 19 C-2 18.34 -2 17.68 -2 17 C-3.98 17 -5.96 17 -8 17 C-8 16.67 -8 16.34 -8 16 C-6.5459375 15.814375 -6.5459375 15.814375 -5.0625 15.625 C-4.051875 15.41875 -3.04125 15.2125 -2 15 C-0.58365167 12.16730334 -0.6536995 9.52533562 -0.4375 6.375 C-0.31181641 4.59222656 -0.31181641 4.59222656 -0.18359375 2.7734375 C-0.12300781 1.85820313 -0.06242188 0.94296875 0 0 Z " fill="#384D65" transform="translate(663,763)"/>
<path d="M0 0 C2.64 0 5.28 0 8 0 C8 0.66 8 1.32 8 2 C8.99 2.66 9.98 3.32 11 4 C9.35 4.66 7.7 5.32 6 6 C5.67 10.95 5.34 15.9 5 21 C3.35 21 1.7 21 0 21 C0 14.07 0 7.14 0 0 Z " fill="#334560" transform="translate(341,763)"/>
<path d="M0 0 C0 0.66 0 1.32 0 2 C-2.31 2 -4.62 2 -7 2 C-7 2.66 -7 3.32 -7 4 C-5.02 4 -3.04 4 -1 4 C-1 4.33 -1 4.66 -1 5 C-2.134375 5.309375 -3.26875 5.61875 -4.4375 5.9375 C-7.78775099 6.62924531 -7.78775099 6.62924531 -9 8 C-8.61577388 12.07279689 -8.12055529 15.46574118 -6 19 C-7.98 19.99 -7.98 19.99 -10 21 C-13.63384843 17.13170974 -14.90640595 14.33486102 -15 9 C-13.76648839 5.43652203 -12.64446777 3.53705647 -9.75 1.125 C-6.35826284 -0.26252884 -3.63018496 -0.21354029 0 0 Z " fill="#22334F" transform="translate(326,762)"/>
<path d="M0 0 C7.5250036 -0.37008214 7.5250036 -0.37008214 9.609375 1.25390625 C11.33764951 3.4239588 11.35134597 4.48673934 11.29296875 7.23046875 C11.28330078 8.03291016 11.27363281 8.83535156 11.26367188 9.66210938 C11.23853516 10.49548828 11.21339844 11.32886719 11.1875 12.1875 C11.17396484 13.03248047 11.16042969 13.87746094 11.14648438 14.74804688 C11.11115799 16.83230384 11.05735139 18.91623277 11 21 C9.35 21 7.7 21 6 21 C5.98582031 19.96359375 5.97164063 18.9271875 5.95703125 17.859375 C5.91011907 16.48953943 5.86187173 15.11974913 5.8125 13.75 C5.80669922 13.06808594 5.80089844 12.38617187 5.79492188 11.68359375 C5.62541502 7.80377024 5.34906454 6.32287134 2.44921875 3.640625 C1.23685547 2.82851563 1.23685547 2.82851563 0 2 C0 1.34 0 0.68 0 0 Z " fill="#152641" transform="translate(363,763)"/>
<path d="M0 0 C2.3125 -0.25 2.3125 -0.25 5 0 C7.01567727 1.78748739 7.9052942 3.23181991 8.23706055 5.92285156 C8.29543482 8.20582095 8.26131089 10.46754017 8.1875 12.75 C8.17396484 13.54277344 8.16042969 14.33554687 8.14648438 15.15234375 C8.11125223 17.10185564 8.05744821 19.05101626 8 21 C6.35 21 4.7 21 3 21 C2.92652344 19.48019531 2.92652344 19.48019531 2.8515625 17.9296875 C2.77647436 16.57810089 2.70092919 15.22653962 2.625 13.875 C2.5940625 13.20984375 2.563125 12.5446875 2.53125 11.859375 C2.28080367 7.60178738 1.52471803 3.97914217 0 0 Z " fill="#243654" transform="translate(505,763)"/>
<path d="M0 0 C1.65 0 3.3 0 5 0 C5 6.93 5 13.86 5 21 C3.35 21 1.7 21 0 21 C0 14.07 0 7.14 0 0 Z " fill="#1B2A42" transform="translate(480,763)"/>
<path d="M0 0 C2.5 1.5 2.5 1.5 4 3 C3.67 4.32 3.34 5.64 3 7 C2.01 6.67 1.02 6.34 0 6 C-5.33295432 5.656509 -5.33295432 5.656509 -10 8 C-10.66 7.67 -11.32 7.34 -12 7 C-12.33 9.31 -12.66 11.62 -13 14 C-13.66 14 -14.32 14 -15 14 C-15.50432107 8.7046288 -14.28757779 6.13295494 -11 2 C-7.3187559 -0.45416273 -4.27738037 -0.59384154 0 0 Z " fill="#3F536B" transform="translate(717,762)"/>
<path d="M0 0 C2.77624477 3.27200276 2.17656464 6.61091746 2 10.75 C1.98195313 11.54728516 1.96390625 12.34457031 1.9453125 13.16601562 C1.89822247 15.13202449 1.82647899 17.09741494 1.75 19.0625 C0.43 19.0625 -0.89 19.0625 -2.25 19.0625 C-2.29898438 18.07507813 -2.34796875 17.08765625 -2.3984375 16.0703125 C-2.47320313 14.78898438 -2.54796875 13.50765625 -2.625 12.1875 C-2.72941406 10.27324219 -2.72941406 10.27324219 -2.8359375 8.3203125 C-2.92241106 4.98188301 -2.92241106 4.98188301 -5.25 3.0625 C-7.82061311 2.41482207 -7.82061311 2.41482207 -10.25 2.0625 C-10.25 1.4025 -10.25 0.7425 -10.25 0.0625 C-3.02777778 -1.26157407 -3.02777778 -1.26157407 0 0 Z " fill="#192E4B" transform="translate(693.25,763.9375)"/>
<path d="M0 0 C1.00289063 0.10183594 2.00578125 0.20367188 3.0390625 0.30859375 C3.80992187 0.39238281 4.58078125 0.47617187 5.375 0.5625 C5 2.5 5 2.5 4.375 4.5625 C1.96954362 5.76522819 0.42503047 5.66321472 -2.25 5.625 C-3.47589844 5.61146484 -3.47589844 5.61146484 -4.7265625 5.59765625 C-5.66628906 5.58025391 -5.66628906 5.58025391 -6.625 5.5625 C-6.955 6.2225 -7.285 6.8825 -7.625 7.5625 C-8.945 7.5625 -10.265 7.5625 -11.625 7.5625 C-11.625 9.2125 -11.625 10.8625 -11.625 12.5625 C-11.955 12.5625 -12.285 12.5625 -12.625 12.5625 C-12.97251969 9.64333462 -13.15780018 7.43054524 -11.58203125 4.86328125 C-7.6563618 0.10873144 -5.96906365 -0.62466945 0 0 Z " fill="#30425C" transform="translate(461.625,762.4375)"/>
<path d="M0 0 C6.27 0 12.54 0 19 0 C19 6.6 19 13.2 19 20 C18.67 20 18.34 20 18 20 C17.67 14.06 17.34 8.12 17 2 C14.710625 1.979375 12.42125 1.95875 10.0625 1.9375 C8.13083984 1.92009766 8.13083984 1.92009766 6.16015625 1.90234375 C3.13701597 1.63467451 3.13701597 1.63467451 2 3 C1.83989519 5.73701178 1.74053172 8.4516759 1.68359375 11.19140625 C1.66281265 12.01124496 1.64203156 12.83108368 1.62062073 13.67576599 C1.55503506 16.30458901 1.49619874 18.93351504 1.4375 21.5625 C1.39432333 23.34050561 1.35070933 25.11850065 1.30664062 26.89648438 C1.19934457 31.26421634 1.09810296 35.63205227 1 40 C0.67 40 0.34 40 0 40 C0 26.8 0 13.6 0 0 Z " fill="#2AECED" transform="translate(785,599)"/>
<path d="M0 0 C0.99 0.33 1.98 0.66 3 1 C2.67 1.33 2.34 1.66 2 2 C1.83989519 4.73701178 1.74053172 7.4516759 1.68359375 10.19140625 C1.66281265 11.01124496 1.64203156 11.83108368 1.62062073 12.67576599 C1.55503506 15.30458901 1.49619874 17.93351504 1.4375 20.5625 C1.39432333 22.34050561 1.35070933 24.11850065 1.30664062 25.89648438 C1.19934457 30.26421634 1.09810296 34.63205227 1 39 C0.34 38.67 -0.32 38.34 -1 38 C-1.02464928 32.74894558 -1.04283568 27.49792455 -1.05493164 22.24682617 C-1.05997218 20.45905979 -1.06680454 18.67129755 -1.07543945 16.88354492 C-1.0875173 14.31948832 -1.09323094 11.75548603 -1.09765625 9.19140625 C-1.10281754 8.3872377 -1.10797882 7.58306915 -1.11329651 6.75453186 C-1.11349215 4.83598285 -1.06201983 2.91754632 -1 1 C-0.67 0.67 -0.34 0.34 0 0 Z " fill="#3465C5" transform="translate(363,337)"/>
<path d="M0 0 C2.5625 2 2.5625 2 4 4 C3.01 5.485 3.01 5.485 2 7 C1.01 6.67 0.02 6.34 -1 6 C-2.72795352 5.93197033 -4.45835365 5.91504355 -6.1875 5.9375 C-7.08855469 5.94652344 -7.98960937 5.95554687 -8.91796875 5.96484375 C-9.94857422 5.98224609 -9.94857422 5.98224609 -11 6 C-11.33 4.68 -11.66 3.36 -12 2 C-8.00706063 -0.66195958 -4.69736163 -0.72919332 0 0 Z " fill="#36475D" transform="translate(635,762)"/>
<path d="M0 0 C4.29 0 8.58 0 13 0 C13 0.99 13 1.98 13 3 C-1.19 3 -15.38 3 -30 3 C-30 2.67 -30 2.34 -30 2 C-20.1 2 -10.2 2 0 2 C0 1.34 0 0.68 0 0 Z " fill="#1361E7" transform="translate(231,771)"/>
<path d="M0 0 C1.65 0 3.3 0 5 0 C4.67 6.27 4.34 12.54 4 19 C3.01 19.33 2.02 19.66 1 20 C2.32 20.33 3.64 20.66 5 21 C3.35 21 1.7 21 0 21 C0 14.07 0 7.14 0 0 Z " fill="#3E516C" transform="translate(493,763)"/>
<path d="M0 0 C0.2475 1.2375 0.495 2.475 0.75 3.75 C1.6710758 7.51439673 2.91347366 9.53077893 6 12 C5 13 5 13 2.125 13.3125 C-1 13 -1 13 -2.875 11.5 C-4.50517055 7.87739877 -4.19772667 4.95453342 -4 1 C-2 0 -2 0 0 0 Z " fill="#192C48" transform="translate(454,769)"/>
<path d="M0 0 C0 0.33 0 0.66 0 1 C-1.65 1.33 -3.3 1.66 -5 2 C-5 2.66 -5 3.32 -5 4 C-3.68 4.33 -2.36 4.66 -1 5 C-3.31 5.33 -5.62 5.66 -8 6 C-8.33 8.31 -8.66 10.62 -9 13 C-9.33 13 -9.66 13 -10 13 C-10 11.35 -10 9.7 -10 8 C-10.66 8 -11.32 8 -12 8 C-12.33 8.99 -12.66 9.98 -13 11 C-13.75 9.3125 -13.75 9.3125 -14 7 C-10.03376001 1.05064001 -7.04922601 -0.26600853 0 0 Z " fill="#34465E" transform="translate(566,762)"/>
<path d="M0 0 C0 0.33 0 0.66 0 1 C-1.98 1.33 -3.96 1.66 -6 2 C-4.68 2.99 -3.36 3.98 -2 5 C-10.8 8 -10.8 8 -14 8 C-14 10.31 -14 12.62 -14 15 C-14.33 15 -14.66 15 -15 15 C-15.66964286 7.23214286 -15.66964286 7.23214286 -12.625 3.5625 C-8.32182266 -0.63822074 -5.79413828 -0.09345384 0 0 Z " fill="#374962" transform="translate(436,762)"/>
<path d="M0 0 C0 0.66 0 1.32 0 2 C-2.31 2 -4.62 2 -7 2 C-7 2.66 -7 3.32 -7 4 C-5.02 4 -3.04 4 -1 4 C-1 4.33 -1 4.66 -1 5 C-11.4 8 -11.4 8 -14 8 C-13.07870137 4.90108642 -12.32841931 3.27211886 -9.8125 1.1875 C-6.38325617 -0.26040295 -3.68625273 -0.2168384 0 0 Z " fill="#293A54" transform="translate(326,762)"/>
<path d="M0 0 C1.670625 0.061875 1.670625 0.061875 3.375 0.125 C3.375 1.445 3.375 2.765 3.375 4.125 C1.375 6.125 1.375 6.125 -1.75 6.25 C-3.173125 6.188125 -3.173125 6.188125 -4.625 6.125 C-5.25 4.25 -5.25 4.25 -5.625 2.125 C-3.625 0.125 -3.625 0.125 0 0 Z " fill="#E2E5EA" transform="translate(631.625,773.875)"/>
<path d="M0 0 C0.99 0.66 1.98 1.32 3 2 C2.42655063 4.86724686 2.1385485 5.8614515 0 8 C-2.625 8.125 -2.625 8.125 -5 8 C-5 7.34 -5 6.68 -5 6 C-6.32 5.67 -7.64 5.34 -9 5 C-8.071875 4.731875 -7.14375 4.46375 -6.1875 4.1875 C-3.23759634 3.08851629 -1.94384814 2.37581439 0 0 Z " fill="#142542" transform="translate(439,775)"/>
<path d="M0 0 C4.95 0 9.9 0 15 0 C15 0.99 15 1.98 15 3 C10.38 3 5.76 3 1 3 C0.67 2.01 0.34 1.02 0 0 Z " fill="#0D213C" transform="translate(271,755)"/>
<path d="M0 0 C0 0.99 0 1.98 0 3 C-0.33 3.33 -0.66 3.66 -1 4 C-1.15980437 6.44608998 -1.25929447 8.86731058 -1.31640625 11.31640625 C-1.33718735 12.04746078 -1.35796844 12.77851532 -1.37937927 13.53172302 C-1.44495024 15.87521656 -1.50379432 18.21882539 -1.5625 20.5625 C-1.60567808 22.14779855 -1.64929213 23.73308529 -1.69335938 25.31835938 C-1.8006392 29.21212037 -1.9018849 33.10599772 -2 37 C-2.33 37 -2.66 37 -3 37 C-3.07404737 32.05211686 -3.12855246 27.10455476 -3.16479492 22.15625 C-3.17990003 20.4722736 -3.20038546 18.78833665 -3.22631836 17.10449219 C-3.26262721 14.68675007 -3.27970847 12.26952708 -3.29296875 9.8515625 C-3.30845261 9.0963028 -3.32393646 8.34104309 -3.33988953 7.56289673 C-3.34057617 5.43994141 -3.34057617 5.43994141 -3 2 C-2.01 1.34 -1.02 0.68 0 0 Z " fill="#1E7EEA" transform="translate(529,340)"/>
<path d="M0 0 C1.45792884 -0.05399736 2.91642712 -0.09279177 4.375 -0.125 C5.18710937 -0.14820313 5.99921875 -0.17140625 6.8359375 -0.1953125 C9 0 9 0 11 2 C10.625 4.125 10.625 4.125 10 6 C8.5164999 5.57742724 7.03823576 5.13643678 5.5625 4.6875 C4.73878906 4.44386719 3.91507813 4.20023438 3.06640625 3.94921875 C2.04353516 3.47935547 2.04353516 3.47935547 1 3 C0.67 2.01 0.34 1.02 0 0 Z " fill="#223754" transform="translate(710,763)"/>
<path d="M0 0 C0.99386719 0.02707031 1.98773437 0.05414062 3.01171875 0.08203125 C4.15060547 0.13423828 4.15060547 0.13423828 5.3125 0.1875 C5.3125 0.5175 5.3125 0.8475 5.3125 1.1875 C0.8575 1.6825 0.8575 1.6825 -3.6875 2.1875 C-3.6875 3.1775 -3.6875 4.1675 -3.6875 5.1875 C-6.1875 7.875 -6.1875 7.875 -8.6875 10.1875 C-9.05297507 3.73077375 -9.05297507 3.73077375 -7.53125 1.46875 C-4.95510037 -0.32145567 -3.1020692 -0.1094848 0 0 Z " fill="#374962" transform="translate(630.6875,770.8125)"/>
<path d="M0 0 C0.99 0 1.98 0 3 0 C2.67 0.66 2.34 1.32 2 2 C1.93049459 3.54023996 1.91547643 5.08334988 1.9375 6.625 C1.94652344 7.44226563 1.95554687 8.25953125 1.96484375 9.1015625 C1.97644531 9.72804688 1.98804688 10.35453125 2 11 C2.33 11 2.66 11 3 11 C3 13.97 3 16.94 3 20 C2.01 20 1.02 20 0 20 C0 13.4 0 6.8 0 0 Z " fill="#132A4A" transform="translate(342,763)"/>
<path d="M0 0 C2.31 0 4.62 0 7 0 C7.33 1.32 7.66 2.64 8 4 C5.03 4 2.06 4 -1 4 C-0.67 2.68 -0.34 1.36 0 0 Z " fill="#1A2B48" transform="translate(319,780)"/>
<path d="M0 0 C0 0.66 0 1.32 0 2 C-2.64 2 -5.28 2 -8 2 C-8 2.66 -8 3.32 -8 4 C-6.35 4 -4.7 4 -3 4 C-3 4.33 -3 4.66 -3 5 C-8.75 6.125 -8.75 6.125 -11 5 C-11 4.34 -11 3.68 -11 3 C-10.34 3 -9.68 3 -9 3 C-9 2.34 -9 1.68 -9 1 C-6.04335481 -0.4783226 -3.25770263 -0.06032783 0 0 Z " fill="#40546E" transform="translate(691,762)"/>
<path d="M0 0 C0.66 0.33 1.32 0.66 2 1 C1.40832031 1.38671875 0.81664062 1.7734375 0.20703125 2.171875 C-4.01413301 4.95384949 -8.12058072 7.74629351 -12 11 C-11.64996937 8.16905053 -11.23218382 7.19401662 -9.00390625 5.33203125 C-7.79541016 4.57986328 -7.79541016 4.57986328 -6.5625 3.8125 C-5.75941406 3.30332031 -4.95632813 2.79414063 -4.12890625 2.26953125 C-2 1 -2 1 0 0 Z " fill="#244FC2" transform="translate(376,265)"/>
<path d="M0 0 C1.051875 0.4640625 1.051875 0.4640625 2.125 0.9375 C5.08936657 2.03302678 7.87698108 2.56422992 11 3 C11 3.33 11 3.66 11 4 C7.37 4.33 3.74 4.66 0 5 C-0.66 4.01 -1.32 3.02 -2 2 C-1.34 1.34 -0.68 0.68 0 0 Z " fill="#162749" transform="translate(452,786)"/>
<path d="M0 0 C2.0625 0.4375 2.0625 0.4375 4 1 C3.67 2.65 3.34 4.3 3 6 C1.68 6 0.36 6 -1 6 C-1.042721 4.33388095 -1.04063832 2.66617115 -1 1 C-0.67 0.67 -0.34 0.34 0 0 Z " fill="#30445F" transform="translate(757,778)"/>
<path d="M0 0 C0.99 0.99 1.98 1.98 3 3 C2.01 4.485 2.01 4.485 1 6 C-3.455 5.01 -3.455 5.01 -8 4 C-8 3.67 -8 3.34 -8 3 C-6.02 3 -4.04 3 -2 3 C-2 2.34 -2 1.68 -2 1 C-1.34 0.67 -0.68 0.34 0 0 Z " fill="#3A4B65" transform="translate(636,763)"/>
<path d="M0 0 C1.98 0.495 1.98 0.495 4 1 C3.67 2.65 3.34 4.3 3 6 C1.68 5.67 0.36 5.34 -1 5 C-0.67 3.35 -0.34 1.7 0 0 Z " fill="#2C3A56" transform="translate(481,753)"/>
<path d="M0 0 C-1.485 2.475 -1.485 2.475 -3 5 C-5.64 4.67 -8.28 4.34 -11 4 C-7.65667474 -0.27945633 -5.29105716 -0.4070044 0 0 Z " fill="#354660" transform="translate(369,762)"/>
<path d="M0 0 C2.97 0 5.94 0 9 0 C9 0.66 9 1.32 9 2 C4.545 2.495 4.545 2.495 0 3 C0 2.01 0 1.02 0 0 Z " fill="#15A5F3" transform="translate(175,771)"/>
<path d="M0 0 C0 0.99 0 1.98 0 3 C-2.97 3 -5.94 3 -9 3 C-8.67 2.01 -8.34 1.02 -8 0 C-2.25 -1.125 -2.25 -1.125 0 0 Z " fill="#0F223F" transform="translate(568,780)"/>
<path d="M0 0 C0.515625 0.37125 1.03125 0.7425 1.5625 1.125 C1.2325 2.115 0.9025 3.105 0.5625 4.125 C-2.7375 3.465 -6.0375 2.805 -9.4375 2.125 C-9.4375 1.795 -9.4375 1.465 -9.4375 1.125 C-3.0375 -1.09038462 -3.0375 -1.09038462 0 0 Z " fill="#485972" transform="translate(720.4375,777.875)"/>
<path d="M0 0 C2.97 0 5.94 0 9 0 C8.01 0.495 8.01 0.495 7 1 C7 1.66 7 2.32 7 3 C5.02 3 3.04 3 1 3 C0.67 2.01 0.34 1.02 0 0 Z " fill="#162945" transform="translate(627,763)"/>
<path d="M0 0 C2.625 -0.1875 2.625 -0.1875 5 0 C5 1.32 5 2.64 5 4 C2.69 3.67 0.38 3.34 -2 3 C-1.34 2.01 -0.68 1.02 0 0 Z " fill="#1E3250" transform="translate(302,762)"/>
<path d="M0 0 C2.31 0 4.62 0 7 0 C6.67 0.99 6.34 1.98 6 3 C4.02 3 2.04 3 0 3 C0 2.01 0 1.02 0 0 Z " fill="#0C1E3A" transform="translate(429,763)"/>
<path d="M0 0 C-0.33 1.32 -0.66 2.64 -1 4 C-1.66 4 -2.32 4 -3 4 C-3.33 5.32 -3.66 6.64 -4 8 C-4 5.69 -4 3.38 -4 1 C-2 0 -2 0 0 0 Z " fill="#0C2342" transform="translate(426,769)"/>
</svg>
