<?xml version="1.0" encoding="UTF-8"?>
<svg version="1.1" xmlns="http://www.w3.org/2000/svg" width="424" height="424">
<path d="M0 0 C139.92 0 279.84 0 424 0 C424 139.92 424 279.84 424 424 C284.08 424 144.16 424 0 424 C0 284.08 0 144.16 0 0 Z " fill="#F9F9FA" transform="translate(0,0)"/>
<path d="M0 0 C3.33546095 1.30867628 6.2416428 3.06686713 9.25 5 C10.92423868 6.02252928 12.59871927 7.04466257 14.2734375 8.06640625 C15.08264648 8.57059082 15.89185547 9.07477539 16.72558594 9.59423828 C19.73470493 11.4541038 22.79427836 13.19862012 25.875 14.9375 C26.97199219 15.56398438 28.06898438 16.19046875 29.19921875 16.8359375 C32.17791358 18.53409476 35.16107412 20.22428802 38.14453125 21.9140625 C55.38971054 31.70095785 55.38971054 31.70095785 62.55078125 36.5 C65.17681993 38.10829163 67.89847824 39.43723031 70.65991211 40.79492188 C75.42489871 43.24875326 80.00909481 46.02926357 84.625 48.75 C86.76795336 50.00698075 88.91118105 51.26349392 91.0546875 52.51953125 C92.08045898 53.12104004 93.10623047 53.72254883 94.16308594 54.34228516 C97.67921496 56.39689067 101.20954013 58.42518514 104.75 60.4375 C114.81791048 66.16600584 124.80046853 72.02726788 134.6875 78.0625 C135.26822266 78.41376953 135.84894531 78.76503906 136.44726562 79.12695312 C142.72653913 82.96710999 142.72653913 82.96710999 143.60351562 86.27954102 C144.31401044 91.15456796 144.3938859 96.0179325 144.5 100.9375 C144.55414063 102.00935547 144.60828125 103.08121094 144.6640625 104.18554688 C144.79527855 111.75390098 144.79527855 111.75390098 142.80615234 114.87060547 C140.97514364 116.55099983 139.1519731 117.75450232 137 119 C136.15791992 119.49685303 135.31583984 119.99370605 134.44824219 120.50561523 C131.53699493 122.149893 128.59072585 123.70630347 125.625 125.25 C123.47655775 126.38946648 121.32942843 127.53141178 119.18359375 128.67578125 C118.13284668 129.23604004 117.08209961 129.79629883 115.99951172 130.37353516 C111.83628246 132.63101793 107.75366979 135.01054445 103.6875 137.4375 C98.45958023 140.55368541 93.20549005 143.57428848 87.84375 146.45703125 C84.35358061 148.3507358 80.89545196 150.29825453 77.4375 152.25 C70.06008707 156.41123038 62.66058948 160.53175833 55.25390625 164.640625 C54.56570801 165.02412109 53.87750977 165.40761719 53.16845703 165.80273438 C51.61812602 166.65871538 50.06099059 167.50241863 48.49951172 168.33789062 C47.68369629 168.77810547 46.86788086 169.21832031 46.02734375 169.671875 C45.280896 170.06987305 44.53444824 170.46787109 43.76538086 170.87792969 C41.84139 171.8880834 41.84139 171.8880834 41 174 C41.81339844 174.22300781 42.62679687 174.44601563 43.46484375 174.67578125 C48.67091624 176.62590122 53.14575717 179.63582932 57.81054688 182.63085938 C58.89625977 183.29891602 58.89625977 183.29891602 60.00390625 183.98046875 C60.65174072 184.39192139 61.2995752 184.80337402 61.96704102 185.22729492 C64.74768166 186.28418547 66.17199949 185.88465522 69 185 C71.01766597 184.03133255 72.99982209 182.98718872 74.953125 181.89453125 C75.52219574 181.57863541 76.09126648 181.26273956 76.67758179 180.93727112 C78.53870179 179.90207286 80.39430506 178.85738693 82.25 177.8125 C83.54572942 177.08941167 84.84179488 176.36692519 86.13818359 175.64501953 C89.45307683 173.79694081 92.76344568 171.94092336 96.0723877 170.08221436 C99.07500533 168.39646256 102.08060128 166.71605667 105.0859375 165.03515625 C108.26346743 163.25747336 111.4403838 161.47878253 114.61425781 159.69458008 C116.48609434 158.64259007 118.35933152 157.59308744 120.23413086 156.54638672 C122.15573573 155.47202488 124.07292048 154.38973427 125.98657227 153.30126953 C126.95393311 152.75841309 127.92129395 152.21555664 128.91796875 151.65625 C129.78188232 151.16705078 130.6457959 150.67785156 131.53588867 150.17382812 C135.08192664 148.48460287 138.0978498 148.14725095 142 148 C144.44814365 151.76858704 144.33941938 155.59708091 144.37109375 159.94140625 C144.38012222 160.70549301 144.3891507 161.46957977 144.39845276 162.25682068 C144.41292814 163.86803278 144.42183525 165.4793033 144.42553711 167.09057617 C144.43747883 169.55812569 144.48672179 172.02320902 144.53710938 174.49023438 C144.54656912 176.05727948 144.5538063 177.62433991 144.55859375 179.19140625 C144.57812607 179.92895645 144.59765839 180.66650665 144.61778259 181.42640686 C144.59936523 183.51000977 144.59936523 183.51000977 144 187 C141.67651367 188.85986328 141.67651367 188.85986328 139 190 C137.88367188 190.67675781 136.76734375 191.35351562 135.6171875 192.05078125 C126.09575674 197.81422072 116.43549235 203.20006342 106.57885742 208.37036133 C98.50124402 212.60832511 90.45104011 216.89186651 82.4375 221.25 C81.54635498 221.73291504 80.65520996 222.21583008 79.73706055 222.71337891 C74.51515597 225.56239936 69.38310808 228.52649267 64.30273438 231.62109375 C58.62397515 235.02160606 52.75668049 238.0897962 46.88671875 241.14453125 C36.83762862 246.38109156 26.92097836 251.80353272 17.09277344 257.44555664 C14.40515451 258.98219013 11.70381292 260.4920947 9 262 C7.73567139 262.7412915 7.73567139 262.7412915 6.44580078 263.49755859 C0.61280822 266.73305554 -4.33318892 268.36304456 -11 267 C-14.6002809 265.54954241 -17.78526028 263.62979162 -21.0625 261.5625 C-22.9179291 260.44698401 -24.77471728 259.33372565 -26.6328125 258.22265625 C-27.54321289 257.67109863 -28.45361328 257.11954102 -29.39160156 256.55126953 C-33.00717914 254.40100934 -36.70357241 252.43510775 -40.4375 250.5 C-53.69763301 243.56676311 -66.80703704 236.35054529 -79.875 229.0625 C-88.84009947 224.06279132 -97.86873189 219.18255543 -106.8984375 214.30078125 C-115.4066324 209.7006244 -123.90097358 205.07548937 -132.38378906 200.42871094 C-135.01999856 198.9890788 -137.66198317 197.56048036 -140.3046875 196.1328125 C-141.95329448 195.23468604 -143.60174003 194.33626315 -145.25 193.4375 C-146.00716309 193.03184814 -146.76432617 192.62619629 -147.54443359 192.20825195 C-150.87661799 190.3807122 -152.85742729 189.21385907 -155 186 C-155.19598462 183.19390695 -155.28004847 180.48947803 -155.265625 177.68359375 C-155.26753845 176.87132828 -155.2694519 176.05906281 -155.27142334 175.22218323 C-155.27278347 173.50659881 -155.26909904 171.79100405 -155.26074219 170.07543945 C-155.25002622 167.44393931 -155.2606502 164.81311971 -155.2734375 162.18164062 C-155.27211615 160.51562349 -155.26955425 158.84960678 -155.265625 157.18359375 C-155.26967346 156.39399765 -155.27372192 155.60440155 -155.27789307 154.7908783 C-155.22992975 149.22992975 -155.22992975 149.22992975 -153 147 C-146.84759882 147.04821631 -141.98660034 150.63283496 -136.875 153.6875 C-134.98709456 154.7927893 -133.09778069 155.89567659 -131.20703125 156.99609375 C-130.3042041 157.52187012 -129.40137695 158.04764648 -128.47119141 158.58935547 C-125.54594767 160.25918932 -122.59192699 161.77832978 -119.5625 163.25 C-114.9631866 165.48542048 -110.52978335 167.92824567 -106.10351562 170.48852539 C-100.12187042 173.94577012 -94.09389986 177.31794386 -88.0625 180.6875 C-79.90374314 185.24829198 -71.75681564 189.82885466 -63.625 194.4375 C-57.46928608 197.92448673 -51.30464143 201.39461685 -45.12109375 204.83203125 C-44.53857849 205.15586288 -43.95606323 205.47969452 -43.355896 205.81333923 C-40.4394325 207.43338692 -37.5205683 209.04885321 -34.59912109 210.65991211 C-29.68650998 213.37244713 -24.79186562 216.09536914 -19.98046875 218.984375 C-19.25142334 219.4165332 -18.52237793 219.84869141 -17.77124023 220.29394531 C-16.48111885 221.06374839 -15.19955599 221.84820844 -13.92993164 222.65136719 C-10.95201385 224.41624979 -9.05951412 225.00081433 -5.57421875 224.953125 C-1.40896134 223.84238969 2.13490564 222.24858345 5.9375 220.25 C6.6375415 219.89019043 7.33758301 219.53038086 8.05883789 219.15966797 C16.70627079 215.3095334 16.70627079 215.3095334 23 209 C22.01 208.6596875 22.01 208.6596875 21 208.3125 C15.87172776 206.06888089 11.14144358 203.71216537 8 199 C7.72584534 197.00247192 7.72584534 197.00247192 7.69360352 194.69970703 C7.67761612 193.835159 7.66162872 192.97061096 7.64515686 192.0798645 C7.63979416 191.14858734 7.63443146 190.21731018 7.62890625 189.2578125 C7.61987778 188.29728973 7.6108493 187.33676697 7.60154724 186.34713745 C7.58703712 184.31462728 7.57815612 182.28207032 7.57446289 180.24951172 C7.56257046 177.14340284 7.51339565 174.03928302 7.46289062 170.93359375 C7.45342591 168.95834303 7.44619111 166.9830801 7.44140625 165.0078125 C7.42187393 164.0805838 7.40234161 163.1533551 7.38221741 162.19802856 C7.41284693 157.80925194 7.49228114 155.6787579 10.18139648 152.08374023 C12.94021789 150.04419578 15.63941702 148.2856275 18.65625 146.65234375 C19.75074463 146.05317139 20.84523926 145.45399902 21.97290039 144.83666992 C23.14859371 144.20360112 24.32429373 143.57054476 25.5 142.9375 C27.33233998 141.93815667 29.16291572 140.93563237 30.99342346 139.93293762 C32.22518089 139.25845202 33.45747199 138.5849401 34.69029236 137.91239929 C40.18982639 134.90959752 45.63276147 131.81422727 51.0625 128.6875 C57.34890202 125.07627684 63.65531922 121.50782241 70 118 C72.19438733 116.7820554 74.38814367 115.56298474 76.58154297 114.34326172 C78.32165699 113.37676592 80.06301985 112.41251732 81.80517578 111.44970703 C84.72955198 109.82989607 87.64654462 108.19741193 90.5625 106.5625 C91.48611328 106.05396484 92.40972656 105.54542969 93.36132812 105.02148438 C94.21275391 104.54130859 95.06417969 104.06113281 95.94140625 103.56640625 C96.70138916 103.14302979 97.46137207 102.71965332 98.24438477 102.28344727 C100.31085704 101.03280929 100.31085704 101.03280929 101 98 C99.95585937 97.42894531 98.91171875 96.85789062 97.8359375 96.26953125 C88.07583312 90.90310446 78.43620887 85.36334643 68.87841797 79.64379883 C63.57962683 76.48276184 58.22920755 73.45352468 52.80200195 70.51855469 C47.94854037 67.88820433 43.13083796 65.19400825 38.3125 62.5 C37.24612305 61.90413086 36.17974609 61.30826172 35.08105469 60.69433594 C26.22130678 55.72486771 17.44109743 50.62588144 8.7043457 45.44335938 C7.76550537 44.88970703 6.82666504 44.33605469 5.859375 43.765625 C5.03920898 43.27868164 4.21904297 42.79173828 3.37402344 42.29003906 C-1.30078075 39.65971797 -1.30078075 39.65971797 -6.51855469 39.22680664 C-9.12312558 40.03836469 -11.31434331 41.05472152 -13.703125 42.37109375 C-14.59225586 42.85787598 -15.48138672 43.3446582 -16.39746094 43.84619141 C-17.33879883 44.37132324 -18.28013672 44.89645508 -19.25 45.4375 C-20.23000977 45.97810059 -21.21001953 46.51870117 -22.21972656 47.07568359 C-28.8161675 50.73261642 -35.34085512 54.49967985 -41.82104492 58.3581543 C-46.68551123 61.24946751 -51.60394983 64.02359637 -56.5625 66.75 C-64.7383334 71.25151346 -72.79935121 75.93774341 -80.85180664 80.65576172 C-90.85717515 86.51463835 -100.92049443 92.26982653 -111 98 C-109.64648571 101.27035077 -108.52320327 102.60653275 -105.3515625 104.15625 C-104.60326172 104.53297852 -103.85496094 104.90970703 -103.08398438 105.29785156 C-102.27251953 105.69456055 -101.46105469 106.09126953 -100.625 106.5 C-93.40663286 110.15350202 -86.40907982 114.04045535 -79.5 118.25 C-72.75159222 122.35030649 -65.96715781 126.28116642 -59 130 C-49.07660518 135.37726525 -39.18891719 140.81573551 -29.4375 146.5 C-28.72964355 146.90895508 -28.02178711 147.31791016 -27.29248047 147.73925781 C-20.7388342 151.59434385 -20.7388342 151.59434385 -19 154 C-18.62768555 157.24633789 -18.62768555 157.24633789 -18.63671875 161.22265625 C-18.63597099 162.27458412 -18.63597099 162.27458412 -18.63520813 163.34776306 C-18.6375458 164.82798094 -18.64725637 166.30820301 -18.66381836 167.78833008 C-18.68745121 170.05781435 -18.68437272 172.32612676 -18.67773438 174.59570312 C-18.72086566 185.72086566 -18.72086566 185.72086566 -21 188 C-24.98243105 187.65383092 -27.93232687 186.13365834 -31.375 184.18359375 C-32.4278418 183.59239746 -33.48068359 183.00120117 -34.56542969 182.39208984 C-35.69883789 181.7470752 -36.83224609 181.10206055 -38 180.4375 C-39.19910614 179.7617545 -40.39865947 179.086802 -41.59863281 178.41259766 C-43.47845301 177.3563266 -45.35798035 176.29956898 -47.23614502 175.24035645 C-53.43991532 171.74279403 -59.67832383 168.30950407 -65.92022705 164.88061523 C-76.11489435 159.27778197 -86.27091091 153.61059958 -96.38842773 147.86938477 C-103.26034417 143.97327238 -110.15461435 140.11843995 -117.06143188 136.28460693 C-118.79287836 135.32339297 -120.52376184 134.36116513 -122.25463867 133.39892578 C-127.34934996 130.56914713 -132.44881307 127.74978925 -137.5703125 124.96875 C-138.40199951 124.51459717 -139.23368652 124.06044434 -140.09057617 123.5925293 C-141.59795658 122.77039308 -143.10830937 121.95367058 -144.62231445 121.14379883 C-149.44844472 118.50466542 -153.21626453 116.3512064 -155 111 C-155.25609828 107.40026706 -155.23134254 103.79538655 -155.25 100.1875 C-155.270625 99.20201172 -155.29125 98.21652344 -155.3125 97.20117188 C-155.36516383 87.39911684 -155.36516383 87.39911684 -152 83 C-149.16899403 80.69997771 -146.13903558 78.8496957 -143 77 C-142.08202637 76.45472656 -141.16405273 75.90945312 -140.21826172 75.34765625 C-137.13701691 73.54280291 -134.03976664 71.76845988 -130.9375 70 C-128.6129802 68.66718751 -126.28876911 67.33384757 -123.96484375 66 C-123.37947845 65.66444092 -122.79411316 65.32888184 -122.19100952 64.9831543 C-116.44265452 61.68614696 -110.71983777 58.3461504 -105 55 C-95.59122533 49.50060888 -86.15777983 44.04519435 -76.71313477 38.60766602 C-70.43020474 34.98774939 -64.16199098 31.34417414 -57.90625 27.67749023 C-47.46450156 21.55756087 -36.95928428 15.56783787 -26.37084961 9.70483398 C-25.39253174 9.16157471 -24.41421387 8.61831543 -23.40625 8.05859375 C-22.47296875 7.54409668 -21.5396875 7.02959961 -20.578125 6.49951172 C-18.24531211 5.14268058 -16.10176139 3.66140924 -13.90625 2.09765625 C-9.39113753 -0.73095619 -5.18314667 -0.99567806 0 0 Z " fill="#2170E7" transform="translate(212,42)"/>
<path d="M0 0 C4.08751689 0.34727367 7.20255424 1.98271609 10.76953125 3.921875 C11.89343262 4.52862061 13.01733398 5.13536621 14.17529297 5.76049805 C15.38776643 6.42353533 16.60016698 7.08670596 17.8125 7.75 C19.07145506 8.43264224 20.33073688 9.11468216 21.59033203 9.79614258 C24.15966419 11.18752664 26.72694708 12.58258116 29.29248047 13.98095703 C32.66087933 15.81665221 36.03453157 17.64246295 39.41015625 19.46484375 C49.81383078 25.08341792 60.19555545 30.74182303 70.57177734 36.41088867 C77.70000235 40.30103755 84.84754131 44.15462037 92 48 C99.25368204 51.90076676 106.50491224 55.80567302 113.73754883 59.74536133 C115.55888133 60.73739599 117.38160708 61.7268776 119.20581055 62.71362305 C123.53815367 65.06601391 127.82223689 67.46909076 132.05078125 70.00390625 C132.85515625 70.47731445 133.65953125 70.95072266 134.48828125 71.43847656 C135.98047672 72.32062742 137.4621666 73.22093892 138.9296875 74.14355469 C143.1596998 76.62328733 146.45251534 77.7049925 151.34106445 76.8527832 C157.66181323 74.82557032 163.40385936 71.39083669 169.1875 68.1875 C170.62573834 67.40515707 172.06471165 66.62416388 173.50439453 65.84448242 C177.04416485 63.9234202 180.57484208 61.98634921 184.1026001 60.04333496 C186.75488148 58.58490868 189.41422216 57.1396093 192.07421875 55.6953125 C195.58187962 53.78932615 199.08548086 51.87621442 202.5859375 49.95703125 C208.70688925 46.60626941 214.85333282 43.30328344 221 40 C229.90014849 35.21579494 238.78201616 30.39996719 247.64770508 25.55224609 C256.0483696 20.96339742 264.47599844 16.42511545 272.90820312 11.89453125 C274.44444336 11.06888672 274.44444336 11.06888672 276.01171875 10.2265625 C277.00606934 9.69579102 278.00041992 9.16501953 279.02490234 8.61816406 C281.05657603 7.51313097 283.07216438 6.37813444 285.07275391 5.21777344 C286.04519043 4.65864258 287.01762695 4.09951172 288.01953125 3.5234375 C288.88296143 3.01474121 289.7463916 2.50604492 290.63598633 1.98193359 C293.36929166 0.84660838 294.25707054 1.168686 297 2 C297.12374395 8.03223203 297.21440813 14.06372285 297.2746582 20.09692383 C297.29977806 22.14848706 297.33388036 24.19996101 297.37719727 26.2512207 C297.43796002 29.20286091 297.46623492 32.1533165 297.48828125 35.10546875 C297.51408768 36.02023483 297.5398941 36.93500092 297.56648254 37.87748718 C297.56841799 42.2875511 297.50404713 44.33349276 294.77758789 47.9387207 C292.25586206 49.81012188 289.85000843 51.42088938 287.0703125 52.875 C286.12212646 53.37845947 285.17394043 53.88191895 284.19702148 54.40063477 C283.18325439 54.92842529 282.1694873 55.45621582 281.125 56 C278.95078602 57.15299476 276.77763413 58.30799419 274.60546875 59.46484375 C272.9510376 60.34438721 272.9510376 60.34438721 271.26318359 61.24169922 C266.27267988 63.93073167 261.35662829 66.74567954 256.4375 69.5625 C247.72353302 74.53430935 238.89496779 79.23685272 229.98095703 83.83886719 C223.91545243 86.9771653 217.98532657 90.25792977 212.08203125 93.69140625 C205.09378079 97.69391886 197.9434517 101.41291895 190.83862305 105.20336914 C182.1730592 109.82769485 173.53701551 114.50288648 164.92773438 119.23144531 C163.3123469 120.11695881 161.69377063 120.99669326 160.07128906 121.86914062 C158.34361572 122.81239651 156.64767515 123.81348076 154.9609375 124.828125 C149.96903043 126.80381381 145.60755346 127.06350368 140.57568359 125.01123047 C137.87981557 123.58041549 135.2868228 122.03699506 132.6875 120.4375 C130.65296806 119.23631448 128.61641654 118.03854475 126.578125 116.84375 C125.51013672 116.21339844 124.44214844 115.58304687 123.34179688 114.93359375 C117.61914906 111.62241822 111.77715255 108.53543802 105.9375 105.4375 C103.55015471 104.16653891 101.16371213 102.89388794 98.77734375 101.62109375 C97.62862793 101.00862793 96.47991211 100.39616211 95.29638672 99.76513672 C89.63239381 96.73220318 83.99929997 93.64330739 78.36474609 90.55615234 C72.15261048 87.15876694 65.91398699 83.81315733 59.66552734 80.4831543 C47.79057252 74.15420813 36.00565664 67.68969626 24.3203125 61.015625 C20.7948538 59.00512245 17.25043048 57.03829062 13.6796875 55.109375 C12.8458252 54.65667236 12.01196289 54.20396973 11.15283203 53.73754883 C9.60317974 52.89911168 8.04971118 52.0676718 6.49169922 51.24487305 C5.80865723 50.87402588 5.12561523 50.50317871 4.421875 50.12109375 C3.82987305 49.8058374 3.23787109 49.49058105 2.62792969 49.16577148 C0.37790979 47.55451698 -0.67895546 46.48462825 -2 44 C-2.43304546 40.82962395 -2.39628105 37.68755734 -2.36328125 34.4921875 C-2.36377975 33.57035675 -2.36427826 32.648526 -2.36479187 31.69876099 C-2.36245453 29.75374186 -2.35274604 27.80871953 -2.33618164 25.86376953 C-2.31253137 22.87895855 -2.31563037 19.89503747 -2.32226562 16.91015625 C-2.3166907 15.02082799 -2.30958199 13.13150349 -2.30078125 11.2421875 C-2.30169266 10.34635956 -2.30260406 9.45053162 -2.30354309 8.52755737 C-2.29401108 7.69974762 -2.28447906 6.87193787 -2.2746582 6.01904297 C-2.26774712 4.9246138 -2.26774712 4.9246138 -2.26069641 3.80807495 C-2 2 -2 2 0 0 Z " fill="#19366A" transform="translate(59,263)"/>
<path d="M0 0 C6.15240118 0.04821631 11.01339966 3.63283496 16.125 6.6875 C18.01290544 7.7927893 19.90221931 8.89567659 21.79296875 9.99609375 C22.6957959 10.52187012 23.59862305 11.04764648 24.52880859 11.58935547 C27.45405233 13.25918932 30.40807301 14.77832978 33.4375 16.25 C38.0368134 18.48542048 42.47021665 20.92824567 46.89648438 23.48852539 C52.87812958 26.94577012 58.90610014 30.31794386 64.9375 33.6875 C73.09625686 38.24829198 81.24318436 42.82885466 89.375 47.4375 C95.53071392 50.92448673 101.69535857 54.39461685 107.87890625 57.83203125 C108.46142151 58.15586288 109.04393677 58.47969452 109.644104 58.81333923 C112.5605675 60.43338692 115.4794317 62.04885321 118.40087891 63.65991211 C123.31349002 66.37244713 128.20813438 69.09536914 133.01953125 71.984375 C133.74857666 72.4165332 134.47762207 72.84869141 135.22875977 73.29394531 C136.51888115 74.06374839 137.80044401 74.84820844 139.07006836 75.65136719 C142.04798615 77.41624979 143.94048588 78.00081433 147.42578125 77.953125 C151.59103866 76.84238969 155.13490564 75.24858345 158.9375 73.25 C159.6375415 72.89019043 160.33758301 72.53038086 161.05883789 72.15966797 C169.70627079 68.3095334 169.70627079 68.3095334 176 62 C177.63919656 61.2799395 179.2818611 60.56682047 180.94042969 59.89257812 C184.64675427 58.2863284 188.11438881 56.24024097 191.625 54.25 C200.7408918 49.11143902 200.7408918 49.11143902 205.02734375 46.89453125 C206.77724609 45.98767578 206.77724609 45.98767578 208.5625 45.0625 C209.59503906 44.53785156 210.62757813 44.01320312 211.69140625 43.47265625 C214.30001738 42.1495197 214.30001738 42.1495197 215 39 C215.8353125 39.08765625 216.670625 39.1753125 217.53125 39.265625 C221.96413584 38.92616978 224.84455005 37.07972266 228.5 34.75 C230.00967175 33.82477662 231.52150165 32.90306801 233.03515625 31.984375 C233.83711426 31.49646484 234.63907227 31.00855469 235.46533203 30.50585938 C239.88733976 27.87872167 244.41246476 25.4439692 248.9375 23 C250.80479834 21.98848584 252.67198637 20.97676802 254.5390625 19.96484375 C255.45075195 19.47097168 256.36244141 18.97709961 257.30175781 18.46826172 C262.87496693 15.43557265 268.41451233 12.34219539 273.95703125 9.25390625 C274.93965942 8.70923706 274.93965942 8.70923706 275.94213867 8.15356445 C277.41817981 7.32614787 278.88623976 6.48443156 280.34887695 5.63354492 C281.13351318 5.18213135 281.91814941 4.73071777 282.7265625 4.265625 C283.78931396 3.6454248 283.78931396 3.6454248 284.87353516 3.01269531 C288.23280207 1.41289748 291.30731424 1.20141922 295 1 C297.44814365 4.76858704 297.33941938 8.59708091 297.37109375 12.94140625 C297.38012222 13.70549301 297.3891507 14.46957977 297.39845276 15.25682068 C297.41292814 16.86803278 297.42183525 18.4793033 297.42553711 20.09057617 C297.43747883 22.55812569 297.48672179 25.02320902 297.53710938 27.49023438 C297.54656912 29.05727948 297.5538063 30.62433991 297.55859375 32.19140625 C297.57812607 32.92895645 297.59765839 33.66650665 297.61778259 34.42640686 C297.59936523 36.51000977 297.59936523 36.51000977 297 40 C294.67651367 41.85986328 294.67651367 41.85986328 292 43 C290.88367188 43.67675781 289.76734375 44.35351562 288.6171875 45.05078125 C279.09575674 50.81422072 269.43549235 56.20006342 259.57885742 61.37036133 C251.50124402 65.60832511 243.45104011 69.89186651 235.4375 74.25 C234.54635498 74.73291504 233.65520996 75.21583008 232.73706055 75.71337891 C227.51515597 78.56239936 222.38310808 81.52649267 217.30273438 84.62109375 C211.62397515 88.02160606 205.75668049 91.0897962 199.88671875 94.14453125 C189.83762862 99.38109156 179.92097836 104.80353272 170.09277344 110.44555664 C167.40515451 111.98219013 164.70381292 113.4920947 162 115 C160.73567139 115.7412915 160.73567139 115.7412915 159.44580078 116.49755859 C153.61280822 119.73305554 148.66681108 121.36304456 142 120 C138.3997191 118.54954241 135.21473972 116.62979162 131.9375 114.5625 C130.0820709 113.44698401 128.22528272 112.33372565 126.3671875 111.22265625 C125.45678711 110.67109863 124.54638672 110.11954102 123.60839844 109.55126953 C119.99282086 107.40100934 116.29642759 105.43510775 112.5625 103.5 C99.30236699 96.56676311 86.19296296 89.35054529 73.125 82.0625 C64.15990053 77.06279132 55.13126811 72.18255543 46.1015625 67.30078125 C37.5933676 62.7006244 29.09902642 58.07548937 20.61621094 53.42871094 C17.98000144 51.9890788 15.33801683 50.56048036 12.6953125 49.1328125 C11.04670552 48.23468604 9.39825997 47.33626315 7.75 46.4375 C6.99283691 46.03184814 6.23567383 45.62619629 5.45556641 45.20825195 C2.12338201 43.3807122 0.14257271 42.21385907 -2 39 C-2.19598462 36.19390695 -2.28004847 33.48947803 -2.265625 30.68359375 C-2.26753845 29.87132828 -2.2694519 29.05906281 -2.27142334 28.22218323 C-2.27278347 26.50659881 -2.26909904 24.79100405 -2.26074219 23.07543945 C-2.25002622 20.44393931 -2.2606502 17.81311971 -2.2734375 15.18164062 C-2.27211615 13.51562349 -2.26955425 11.84960678 -2.265625 10.18359375 C-2.26967346 9.39399765 -2.27372192 8.60440155 -2.27789307 7.7908783 C-2.22992975 2.22992975 -2.22992975 2.22992975 0 0 Z " fill="#20A4DF" transform="translate(59,189)"/>
<path d="M0 0 C0.99 0.33 1.98 0.66 3 1 C2.67 1.33 2.34 1.66 2 2 C1.83989519 4.73701178 1.74053172 7.4516759 1.68359375 10.19140625 C1.66281265 11.01124496 1.64203156 11.83108368 1.62062073 12.67576599 C1.55503506 15.30458901 1.49619874 17.93351504 1.4375 20.5625 C1.39432333 22.34050561 1.35070933 24.11850065 1.30664062 25.89648438 C1.19934457 30.26421634 1.09810296 34.63205227 1 39 C0.34 38.67 -0.32 38.34 -1 38 C-1.02464928 32.74894558 -1.04283568 27.49792455 -1.05493164 22.24682617 C-1.05997218 20.45905979 -1.06680454 18.67129755 -1.07543945 16.88354492 C-1.0875173 14.31948832 -1.09323094 11.75548603 -1.09765625 9.19140625 C-1.10281754 8.3872377 -1.10797882 7.58306915 -1.11329651 6.75453186 C-1.11349215 4.83598285 -1.06201983 2.91754632 -1 1 C-0.67 0.67 -0.34 0.34 0 0 Z " fill="#3465C5" transform="translate(58,190)"/>
<path d="M0 0 C0 0.99 0 1.98 0 3 C-0.33 3.33 -0.66 3.66 -1 4 C-1.15980437 6.44608998 -1.25929447 8.86731058 -1.31640625 11.31640625 C-1.33718735 12.04746078 -1.35796844 12.77851532 -1.37937927 13.53172302 C-1.44495024 15.87521656 -1.50379432 18.21882539 -1.5625 20.5625 C-1.60567808 22.14779855 -1.64929213 23.73308529 -1.69335938 25.31835938 C-1.8006392 29.21212037 -1.9018849 33.10599772 -2 37 C-2.33 37 -2.66 37 -3 37 C-3.07404737 32.05211686 -3.12855246 27.10455476 -3.16479492 22.15625 C-3.17990003 20.4722736 -3.20038546 18.78833665 -3.22631836 17.10449219 C-3.26262721 14.68675007 -3.27970847 12.26952708 -3.29296875 9.8515625 C-3.30845261 9.0963028 -3.32393646 8.34104309 -3.33988953 7.56289673 C-3.34057617 5.43994141 -3.34057617 5.43994141 -3 2 C-2.01 1.34 -1.02 0.68 0 0 Z " fill="#1E7EEA" transform="translate(224,193)"/>
<path d="M0 0 C0.66 0.33 1.32 0.66 2 1 C1.40832031 1.38671875 0.81664063 1.7734375 0.20703125 2.171875 C-4.01413301 4.95384949 -8.12058072 7.74629351 -12 11 C-11.64996937 8.16905053 -11.23218382 7.19401662 -9.00390625 5.33203125 C-7.79541016 4.57986328 -7.79541016 4.57986328 -6.5625 3.8125 C-5.75941406 3.30332031 -4.95632812 2.79414062 -4.12890625 2.26953125 C-2 1 -2 1 0 0 Z " fill="#244FC2" transform="translate(71,118)"/>
</svg>
